<svg width="26" height="26" viewBox="0 0 26 26" fill="none" xmlns="http://www.w3.org/2000/svg">
<path d="M23.8327 23.8334H2.16602C1.72185 23.8334 1.35352 23.465 1.35352 23.0209C1.35352 22.5767 1.72185 22.2084 2.16602 22.2084H23.8327C24.2768 22.2084 24.6452 22.5767 24.6452 23.0209C24.6452 23.465 24.2768 23.8334 23.8327 23.8334Z" fill="#0C0839"/>
<path d="M10.5625 4.33341V23.8334H15.4375V4.33341C15.4375 3.14175 14.95 2.16675 13.4875 2.16675H12.5125C11.05 2.16675 10.5625 3.14175 10.5625 4.33341Z" fill="#0C0839"/>
<path d="M3.25 10.8334V23.8334H7.58333V10.8334C7.58333 9.64175 7.15 8.66675 5.85 8.66675H4.98333C3.68333 8.66675 3.25 9.64175 3.25 10.8334Z" fill="#0C0839"/>
<path d="M18.416 16.2499V23.8333H22.7493V16.2499C22.7493 15.0583 22.316 14.0833 21.016 14.0833H20.1493C18.8493 14.0833 18.416 15.0583 18.416 16.2499Z" fill="#0C0839"/>
</svg>
