<svg width="22" height="22" viewBox="0 0 22 22" fill="none" xmlns="http://www.w3.org/2000/svg">
<path fill-rule="evenodd" clip-rule="evenodd" d="M18.2916 17.6667C18.2916 18.2742 18.0499 18.8576 17.6208 19.2876C17.1908 19.7167 16.6074 19.9584 15.9999 19.9584H5.99992C5.39242 19.9584 4.80909 19.7167 4.37909 19.2876C3.94992 18.8576 3.70825 18.2742 3.70825 17.6667V4.33341C3.70825 3.72591 3.94992 3.14258 4.37909 2.71258C4.80909 2.28341 5.39242 2.04175 5.99992 2.04175H13.1549C13.5416 2.04175 13.9124 2.19508 14.1858 2.46925L17.8641 6.14758C18.1383 6.42092 18.2916 6.79175 18.2916 7.17841V17.6667ZM17.0416 17.6667V7.17841C17.0416 7.12341 17.0199 7.07008 16.9808 7.03091L13.3024 3.35258C13.2633 3.31341 13.2099 3.29175 13.1549 3.29175H5.99992C5.72325 3.29175 5.45909 3.40175 5.26325 3.59675C5.06825 3.79258 4.95825 4.05675 4.95825 4.33341V17.6667C4.95825 17.9434 5.06825 18.2076 5.26325 18.4034C5.45909 18.5984 5.72325 18.7084 5.99992 18.7084H15.9999C16.2766 18.7084 16.5408 18.5984 16.7366 18.4034C16.9316 18.2076 17.0416 17.9434 17.0416 17.6667Z" fill="url(#paint0_linear_283_8212)"/>
<path fill-rule="evenodd" clip-rule="evenodd" d="M12.875 3.0835C12.875 2.7385 13.155 2.4585 13.5 2.4585C13.845 2.4585 14.125 2.7385 14.125 3.0835V6.00016C14.125 6.11516 14.2183 6.2085 14.3333 6.2085H17.25C17.595 6.2085 17.875 6.4885 17.875 6.8335C17.875 7.1785 17.595 7.4585 17.25 7.4585H14.3333C13.5275 7.4585 12.875 6.806 12.875 6.00016V3.0835Z" fill="url(#paint1_linear_283_8212)"/>
<path fill-rule="evenodd" clip-rule="evenodd" d="M7.6665 10.375C7.3215 10.375 7.0415 10.095 7.0415 9.75C7.0415 9.405 7.3215 9.125 7.6665 9.125H14.3332C14.6782 9.125 14.9582 9.405 14.9582 9.75C14.9582 10.095 14.6782 10.375 14.3332 10.375H7.6665Z" fill="url(#paint2_linear_283_8212)"/>
<path fill-rule="evenodd" clip-rule="evenodd" d="M7.6665 13.2917C7.3215 13.2917 7.0415 13.0117 7.0415 12.6667C7.0415 12.3217 7.3215 12.0417 7.6665 12.0417H14.3332C14.6782 12.0417 14.9582 12.3217 14.9582 12.6667C14.9582 13.0117 14.6782 13.2917 14.3332 13.2917H7.6665Z" fill="url(#paint3_linear_283_8212)"/>
<path fill-rule="evenodd" clip-rule="evenodd" d="M7.6665 16.2085C7.3215 16.2085 7.0415 15.9285 7.0415 15.5835C7.0415 15.2385 7.3215 14.9585 7.6665 14.9585H11.4165C11.7615 14.9585 12.0415 15.2385 12.0415 15.5835C12.0415 15.9285 11.7615 16.2085 11.4165 16.2085H7.6665Z" fill="url(#paint4_linear_283_8212)"/>
<defs>
<linearGradient id="paint0_linear_283_8212" x1="3.70825" y1="-1.69094" x2="18.5031" y2="-1.54543" gradientUnits="userSpaceOnUse">
<stop stop-color="#9945FF"/>
<stop offset="1" stop-color="#20E19F"/>
</linearGradient>
<linearGradient id="paint1_linear_283_8212" x1="12.875" y1="1.41682" x2="17.9473" y2="1.47811" gradientUnits="userSpaceOnUse">
<stop stop-color="#9945FF"/>
<stop offset="1" stop-color="#20E19F"/>
</linearGradient>
<linearGradient id="paint2_linear_283_8212" x1="7.0415" y1="8.86458" x2="15.027" y2="9.47569" gradientUnits="userSpaceOnUse">
<stop stop-color="#9945FF"/>
<stop offset="1" stop-color="#20E19F"/>
</linearGradient>
<linearGradient id="paint3_linear_283_8212" x1="7.0415" y1="11.7813" x2="15.027" y2="12.3924" gradientUnits="userSpaceOnUse">
<stop stop-color="#9945FF"/>
<stop offset="1" stop-color="#20E19F"/>
</linearGradient>
<linearGradient id="paint4_linear_283_8212" x1="7.0415" y1="14.6981" x2="12.1027" y2="14.9427" gradientUnits="userSpaceOnUse">
<stop stop-color="#9945FF"/>
<stop offset="1" stop-color="#20E19F"/>
</linearGradient>
</defs>
</svg>
