<svg width="781" height="560" viewBox="0 0 781 560" fill="none" xmlns="http://www.w3.org/2000/svg">
<path d="M2 455.522L16.8061 333.063C18.0484 322.788 31.4674 319.706 37.0687 328.408V328.408C41.7093 335.618 52.4366 335.026 56.255 327.349L58.5069 322.821C62.6299 314.531 74.4564 314.531 78.5794 322.821V322.821C82.8538 331.415 95.2485 331.012 98.9552 322.158L120.978 269.555C121.753 267.704 122.231 265.743 122.394 263.743L124.028 243.747C125.553 225.087 152.261 223.463 156.035 241.801V241.801V241.801C160.894 265.681 194.994 265.563 200.397 241.801V241.801L204.269 219.676C207.003 204.049 229.741 204.998 231.163 220.799V220.799C232.64 237.216 256.596 237.305 258.196 220.899L265.8 142.894C266.446 136.268 275.458 134.792 278.184 140.866V140.866C280.388 145.777 287.268 146.025 289.821 141.286L291.341 138.463C294.938 131.786 304.925 133.306 306.371 140.752L307.717 147.683C310.019 159.535 327.18 158.922 328.631 146.936L331.495 123.283C333.544 106.364 358.131 106.499 359.993 123.44L375.965 268.719C377.044 278.538 390.295 280.833 394.614 271.949L396.435 268.203C400.198 260.461 411.734 262.402 412.757 270.949V270.949C413.975 281.121 428.75 281.067 429.894 270.888L431.038 260.712C432.373 248.832 449.763 249.21 450.581 261.137L452.408 287.769C453.42 302.532 474.894 303.141 476.74 288.458L479.819 263.987C481.91 247.359 505.783 246.746 508.724 263.246L517.441 312.147C519.646 324.514 535.553 328.277 543.064 318.209V318.209C548.836 310.473 560.446 310.527 566.144 318.318L566.796 319.209C574.313 329.487 590.384 326.482 593.68 314.183L601.368 285.499C605.696 269.348 629.043 270.69 631.492 287.231V287.231C634.126 305.01 659.89 304.656 662.032 286.81L677.817 155.349C680.484 133.135 712.583 132.773 715.75 154.921L718.815 176.348C721.405 194.463 747.509 194.606 750.298 176.521L751.053 171.623C753.318 156.939 773.531 154.667 779 168.481V168.481" stroke="#675AFF" stroke-width="3"/>
<path d="M16.806 333.038L2 455.487V532C2 547.464 14.536 560 30 560H751C766.464 560 779 547.464 779 532V171.111C779 169.365 778.67 167.634 778.027 166.011C772.827 152.877 753.609 155.038 751.456 168.999L750.298 176.507C747.508 194.592 721.405 194.449 718.815 176.334L715.75 154.909C712.583 132.761 680.484 133.123 677.817 155.337L662.032 286.788C659.89 304.633 634.126 304.988 631.492 287.209C629.042 270.668 605.697 269.326 601.368 285.477L593.68 314.158C590.384 326.457 574.313 329.462 566.796 319.185L566.144 318.293C560.446 310.503 548.836 310.448 543.065 318.184C535.553 328.252 519.646 324.489 517.441 312.123L508.724 263.226C505.783 246.726 481.91 247.339 479.819 263.967L476.74 288.436C474.894 303.118 453.421 302.51 452.408 287.747L450.581 261.117C449.763 249.19 432.373 248.812 431.038 260.692L429.894 270.867C428.75 281.047 413.975 281.1 412.757 270.929C411.734 262.382 400.198 260.441 396.435 268.182L394.614 271.928C390.295 280.812 377.044 278.517 375.965 268.698L359.993 123.431C358.131 106.49 333.544 106.354 331.495 123.274L328.631 146.925C327.18 158.911 310.02 159.523 307.717 147.672L306.371 140.741C304.925 133.296 294.938 131.775 291.341 138.453L289.821 141.275C287.268 146.014 280.388 145.766 278.184 140.855C275.458 134.782 266.446 136.258 265.8 142.883L258.196 220.883C256.596 237.288 232.64 237.199 231.163 220.782C229.741 204.981 207.003 204.032 204.269 219.659L200.397 241.783C194.993 265.544 160.894 265.662 156.035 241.783C152.26 223.444 125.553 225.068 124.028 243.729L122.394 263.723C122.231 265.722 121.753 267.684 120.978 269.534L98.9553 322.133C95.2484 330.987 82.854 331.39 78.5794 322.796C74.4562 314.506 62.6301 314.506 58.5069 322.796L56.255 327.323C52.4365 335 41.7095 335.593 37.0687 328.383C31.4672 319.681 18.0484 322.763 16.806 333.038Z" fill="url(#paint0_linear_815_3906)"/>
<defs>
<linearGradient id="paint0_linear_815_3906" x1="390.5" y1="0" x2="390.5" y2="560" gradientUnits="userSpaceOnUse">
<stop stop-color="#6D61FF" stop-opacity="0.2"/>
<stop offset="1" stop-color="#6D61FF" stop-opacity="0.05"/>
</linearGradient>
</defs>
</svg>
