<svg width="24" height="24" viewBox="0 0 24 24" fill="none" xmlns="http://www.w3.org/2000/svg">
<path d="M20.5211 2.00014H3.47887C3.2873 1.9975 3.09708 2.03239 2.91908 2.10282C2.74108 2.17326 2.57878 2.27786 2.44145 2.41065C2.30412 2.54344 2.19445 2.70181 2.1187 2.87674C2.04296 3.05166 2.00262 3.2397 2 3.43012V20.5699C2.00262 20.7603 2.04296 20.9483 2.1187 21.1233C2.19445 21.2982 2.30412 21.4566 2.44145 21.5894C2.57878 21.7221 2.74108 21.8267 2.91908 21.8972C3.09708 21.9676 3.2873 22.0025 3.47887 21.9999H20.5211C20.7127 22.0025 20.9029 21.9676 21.0809 21.8972C21.2589 21.8267 21.4212 21.7221 21.5586 21.5894C21.6959 21.4566 21.8056 21.2982 21.8813 21.1233C21.957 20.9483 21.9974 20.7603 22 20.5699V3.43012C21.9974 3.2397 21.957 3.05166 21.8813 2.87674C21.8056 2.70181 21.6959 2.54344 21.5586 2.41065C21.4212 2.27786 21.2589 2.17326 21.0809 2.10282C20.9029 2.03239 20.7127 1.9975 20.5211 2.00014ZM8.0664 18.7399H5.04829V9.74003H8.0664V18.7399ZM6.55734 8.48005C6.14111 8.48005 5.74192 8.31569 5.4476 8.02314C5.15328 7.73059 4.98793 7.3338 4.98793 6.92007C4.98793 6.50634 5.15328 6.10955 5.4476 5.817C5.74192 5.52445 6.14111 5.36009 6.55734 5.36009C6.77837 5.33518 7.00219 5.35695 7.21416 5.42398C7.42613 5.491 7.62147 5.60178 7.78738 5.74905C7.95329 5.89632 8.08604 6.07676 8.17693 6.27856C8.26782 6.48036 8.31481 6.69897 8.31481 6.92007C8.31481 7.14117 8.26782 7.35978 8.17693 7.56158C8.08604 7.76338 7.95329 7.94382 7.78738 8.09109C7.62147 8.23836 7.42613 8.34914 7.21416 8.41617C7.00219 8.48319 6.77837 8.50496 6.55734 8.48005ZM18.9517 18.7399H15.9336V13.91C15.9336 12.7 15.501 11.91 14.4044 11.91C14.0651 11.9125 13.7346 12.0183 13.4576 12.2132C13.1806 12.4081 12.9703 12.6827 12.8551 13C12.7764 13.235 12.7423 13.4826 12.7545 13.73V18.7299H9.73642C9.73642 18.7299 9.73642 10.55 9.73642 9.73003H12.7545V11C13.0287 10.5271 13.4275 10.1375 13.9079 9.87323C14.3883 9.60892 14.9322 9.47989 15.4809 9.50003C17.493 9.50003 18.9517 10.79 18.9517 13.56V18.7399Z" fill="#0C0839"/>
</svg>
