<svg width="149" height="32" viewBox="0 0 149 32" fill="none" xmlns="http://www.w3.org/2000/svg">
<g clip-path="url(#clip0_53_266)">
<mask id="mask0_53_266" style="mask-type:luminance" maskUnits="userSpaceOnUse" x="0" y="2" width="19" height="28">
<path d="M0 2H19V30H0V2Z" fill="white"/>
</mask>
<g mask="url(#mask0_53_266)">
<path d="M18.6034 2C18.4637 2 18.3288 2.05948 18.2309 2.16795L15.3696 5.27848L14.1927 6.60631C14.069 6.74452 14 6.92996 14 7.1224V29.5521C14 29.7988 14.1847 30 14.411 30C14.5186 30 14.6214 29.9545 14.6985 29.874L18.6403 25.6946C18.8683 25.4532 18.9968 25.1225 19 24.7761V2.42337C18.9968 2.18894 18.8218 2 18.6066 2H18.6034Z" fill="url(#paint0_linear_53_266)"/>
<path d="M5 22.2272V24.7674C5 25.1155 4.86994 25.4514 4.64033 25.6946L0.698459 29.8723C0.621387 29.9545 0.518626 30 0.411047 30C0.18465 30 0 29.7988 0 29.5521V7.1224C0 6.92996 0.069043 6.74452 0.191073 6.60631L1.36962 5.27848L4.22929 2.16795C4.32884 2.05948 4.46371 2 4.6034 2H4.60662C4.82338 2 5 2.19069 5 2.42687V22.2272Z" fill="#954AFC"/>
<path d="M7.39338 2C7.17662 2 7 2.19069 7 2.42687V22.2272V24.7674C7 25.1155 7.13006 25.4514 7.35967 25.6946L11.3015 29.874C11.3786 29.9545 11.4814 30 11.589 30C11.8154 30 12 29.7988 12 29.5521V7.1224C12 6.92996 11.931 6.74452 11.8073 6.60631L10.6304 5.27848L7.76911 2.16795C7.67116 2.05948 7.53629 2 7.3966 2H7.39338Z" fill="url(#paint1_linear_53_266)"/>
</g>
</g>
<mask id="mask1_53_266" style="mask-type:luminance" maskUnits="userSpaceOnUse" x="31" y="6" width="118" height="26">
<path d="M31 6H149V32H31V6Z" fill="white"/>
</mask>
<g mask="url(#mask1_53_266)">
<path d="M43.3659 6V17.7752L35.6217 6H31V25H35.6217V13.2854L43.3659 25H48V6H43.3659Z" fill="#0C0839"/>
<path d="M52 6V25H56.497V17.3153H62.1122V13.7089H56.497V9.71529H64V6H52Z" fill="#0C0839"/>
<path d="M65.4929 14.521C65.4929 19.8715 73.6749 18.1776 73.6749 20.5257C73.6749 21.1799 73.0464 21.7056 71.8635 21.7056C70.6066 21.7056 69.6578 21.028 69.5592 20.0117H65C65.2218 22.8271 67.9081 25 71.9251 25C75.6834 25 78 23.0841 78 20.5607C77.9261 15.1285 69.7934 16.764 69.7934 14.4393C69.7934 13.7383 70.3848 13.3178 71.4692 13.3178C72.7507 13.3178 73.5393 13.972 73.6749 14.965H77.9261C77.6303 12.0911 75.4739 10 71.6047 10C67.6739 10 65.4929 12.0444 65.4929 14.521Z" fill="#0C0839"/>
<path d="M80 6V9.71529H84.8044V25H89.2074V9.71529H94V6H80Z" fill="#0C0839"/>
<path fill-rule="evenodd" clip-rule="evenodd" d="M103.681 10C105.933 10 107.538 10.993 108.359 12.278V10.2103H113V24.7897H108.359V22.722C107.513 24.007 105.908 25 103.656 25C99.9611 25 97 22.0678 97 17.4766C97 12.8738 99.9611 10 103.681 10ZM105.037 21.0981C106.804 21.0981 108.359 19.8248 108.359 17.5C108.359 15.1752 106.804 13.8902 105.037 13.8902C103.295 13.8902 101.728 15.1519 101.728 17.4766C101.728 19.8014 103.295 21.0981 105.037 21.0981Z" fill="#0C0839"/>
<path d="M126.034 10L122.592 19.3261L119.126 10H114L120.097 24.4076L116.667 32H121.597L131 10H126.034Z" fill="#0C0839"/>
<path d="M129 25.0079C129 25.5591 129.397 26 130 26C130.588 26 131 25.5591 131 25.0079C131 24.4409 130.588 24 130 24C129.397 24 129 24.4409 129 25.0079Z" fill="#0C0839"/>
<path d="M131 23.5C131 25.0434 131.842 26 133.044 26C134.06 26 134.781 25.2857 135 24.1633H133.667C133.557 24.5204 133.361 24.7245 133.022 24.7245C132.574 24.7245 132.268 24.3036 132.268 23.5C132.268 22.6837 132.574 22.2628 133.022 22.2628C133.361 22.2628 133.568 22.4796 133.667 22.824H135C134.781 21.6633 134.06 21 133.044 21C131.842 21 131 21.9566 131 23.5Z" fill="#0C0839"/>
<path fill-rule="evenodd" clip-rule="evenodd" d="M138.5 21C139.905 21 141 21.9566 141 23.5C141 25.0434 139.892 26 138.487 26C137.07 26 136 25.0434 136 23.5C136 21.9566 137.095 21 138.5 21ZM138.487 24.7117C139.003 24.7117 139.492 24.3163 139.492 23.5C139.492 22.6709 139.015 22.2883 138.5 22.2883C137.972 22.2883 137.508 22.6709 137.508 23.5C137.508 24.3163 137.946 24.7117 138.487 24.7117Z" fill="#0C0839"/>
<path d="M145.466 21.9221C145.134 21.3247 144.56 21 143.845 21C143.22 21 142.735 21.2727 142.455 21.6753V21.0519H141V26H142.455V23.3117C142.455 22.6623 142.812 22.3117 143.373 22.3117C143.922 22.3117 144.279 22.6623 144.279 23.3117V26H145.721V23.3117C145.721 22.6623 146.078 22.3117 146.64 22.3117C147.188 22.3117 147.545 22.6623 147.545 23.3117V26H149V23.1169C149 21.7792 148.234 21 147.061 21C146.372 21 145.772 21.4026 145.466 21.9221Z" fill="#0C0839"/>
</g>
<defs>
<linearGradient id="paint0_linear_53_266" x1="14.1181" y1="15.8684" x2="19.113" y2="16.0994" gradientUnits="userSpaceOnUse">
<stop stop-color="#44B4BB"/>
<stop offset="0.758" stop-color="#16EE96"/>
<stop offset="1" stop-color="#16EE96"/>
</linearGradient>
<linearGradient id="paint1_linear_53_266" x1="7.00035" y1="15.9996" x2="13.8862" y2="15.9996" gradientUnits="userSpaceOnUse">
<stop stop-color="#8165EC"/>
<stop offset="0.088" stop-color="#8165EC"/>
<stop offset="1" stop-color="#44B4BB"/>
</linearGradient>
<clipPath id="clip0_53_266">
<rect width="19" height="28" fill="white" transform="translate(0 2)"/>
</clipPath>
</defs>
</svg>
