<svg width="22" height="22" viewBox="0 0 22 22" fill="none" xmlns="http://www.w3.org/2000/svg">
<g clip-path="url(#clip0_53_170)">
<g clip-path="url(#clip1_53_170)">
<path d="M18.5293 11.5939C18.3825 11.4297 18.3015 11.2186 18.3015 11C18.3015 10.7814 18.3825 10.5703 18.5293 10.4061L19.7019 9.11026C19.8311 8.96868 19.9113 8.79053 19.9311 8.60138C19.9508 8.41223 19.9091 8.22179 19.8118 8.0574L17.9797 4.94383C17.8834 4.77962 17.7368 4.64945 17.5607 4.57189C17.3848 4.49433 17.1884 4.47333 16.9995 4.51188L15.2772 4.85384C15.0581 4.89832 14.8299 4.86247 14.6359 4.75305C14.4418 4.64364 14.2952 4.46822 14.2237 4.25992L13.6649 2.61314C13.6034 2.43441 13.4864 2.27916 13.3302 2.16936C13.1741 2.05956 12.9866 2.00074 12.7946 2.00123H9.1303C8.93053 1.99098 8.73284 2.04525 8.56742 2.15574C8.402 2.26624 8.27795 2.42689 8.21421 2.61314L7.70121 4.25992C7.62975 4.46822 7.48315 4.64364 7.28907 4.75305C7.09499 4.86247 6.86685 4.89832 6.64771 4.85384L4.87967 4.51188C4.70062 4.48703 4.51809 4.51478 4.35506 4.59165C4.19205 4.66851 4.05583 4.79105 3.96358 4.94383L2.13142 8.0574C2.03171 8.21997 1.98688 8.40933 2.00333 8.59843C2.01978 8.78753 2.09668 8.96668 2.22302 9.11026L3.38645 10.4061C3.53332 10.5703 3.61431 10.7814 3.61431 11C3.61431 11.2186 3.53332 11.4297 3.38645 11.5939L2.22302 12.8897C2.09668 13.0334 2.01978 13.2124 2.00333 13.4016C1.98688 13.5907 2.03171 13.7801 2.13142 13.9426L3.96358 17.0562C4.05985 17.2204 4.20646 17.3505 4.38246 17.4281C4.55847 17.5057 4.75491 17.5266 4.94379 17.4881L6.66603 17.1462C6.88517 17.1017 7.11331 17.1375 7.30739 17.2469C7.50147 17.3564 7.64807 17.5318 7.71953 17.7401L8.27834 19.3869C8.34208 19.5731 8.46613 19.7338 8.63154 19.8443C8.79696 19.9548 8.99465 20.009 9.19442 19.9988H12.8588C13.0508 19.9992 13.2382 19.9405 13.3943 19.8307C13.5505 19.7208 13.6676 19.5656 13.729 19.3869L14.2879 17.7401C14.3593 17.5318 14.5059 17.3564 14.7 17.2469C14.894 17.1375 15.1222 17.1017 15.3413 17.1462L17.0636 17.4881C17.2525 17.5266 17.4489 17.5057 17.6249 17.4281C17.8009 17.3505 17.9475 17.2204 18.0438 17.0562L19.876 13.9426C19.9732 13.7782 20.0149 13.5878 19.9952 13.3986C19.9754 13.2095 19.8952 13.0313 19.766 12.8897L18.5293 11.5939ZM17.1644 12.7998L17.8972 13.6096L16.7246 15.6074L15.6437 15.3914C14.9839 15.2589 14.2976 15.369 13.7149 15.7008C13.1323 16.0326 12.694 16.5629 12.4832 17.1912L12.1351 18.199H9.78988L9.46009 17.1732C9.24925 16.5449 8.81093 16.0146 8.22832 15.6828C7.64571 15.351 6.95938 15.2409 6.2996 15.3734L5.21862 15.5894L4.02771 13.6006L4.76058 12.7908C5.21124 12.2958 5.4604 11.655 5.4604 10.991C5.4604 10.327 5.21124 9.68617 4.76058 9.19125L4.02771 8.38136L5.2003 6.40163L6.28128 6.6176C6.94106 6.75008 7.62739 6.63999 8.21 6.30822C8.79261 5.97645 9.23093 5.4461 9.44177 4.81784L9.78988 3.80098H12.1351L12.4832 4.82684C12.694 5.4551 13.1323 5.98544 13.7149 6.31722C14.2976 6.64899 14.9839 6.75908 15.6437 6.6266L16.7246 6.41063L17.8972 8.40836L17.1644 9.21824C16.7188 9.71209 16.4727 10.3491 16.4727 11.009C16.4727 11.6689 16.7188 12.3059 17.1644 12.7998ZM10.9625 7.40049C10.2378 7.40049 9.52925 7.61159 8.92666 8.00712C8.32407 8.40263 7.8544 8.9648 7.57706 9.62255C7.29971 10.2803 7.22714 11.004 7.36853 11.7023C7.50993 12.4005 7.85892 13.0418 8.37139 13.5452C8.88385 14.0486 9.53676 14.3915 10.2476 14.5303C10.9584 14.6692 11.6951 14.598 12.3647 14.3255C13.0343 14.0531 13.6066 13.5917 14.0093 12.9998C14.4119 12.4079 14.6268 11.7119 14.6268 11C14.6268 10.0453 14.2408 9.1298 13.5535 8.45476C12.8664 7.77972 11.9343 7.40049 10.9625 7.40049ZM10.9625 12.7998C10.6001 12.7998 10.2459 12.6942 9.9446 12.4964C9.6433 12.2987 9.40843 12.0176 9.26976 11.6888C9.13108 11.3599 9.09481 10.998 9.1655 10.6489C9.2362 10.2998 9.41069 9.97908 9.66694 9.72739C9.92317 9.47569 10.2497 9.30427 10.605 9.23479C10.9604 9.16539 11.3288 9.20105 11.6636 9.3372C11.9984 9.47344 12.2846 9.70417 12.4858 10.0001C12.6872 10.2961 12.7946 10.644 12.7946 11C12.7946 11.4773 12.6016 11.9351 12.258 12.2726C11.9144 12.6101 11.4484 12.7998 10.9625 12.7998Z" fill="url(#paint0_linear_53_170)"/>
</g>
</g>
<defs>
<linearGradient id="paint0_linear_53_170" x1="2" y1="-1.75005" x2="20.2601" y2="-1.52941" gradientUnits="userSpaceOnUse">
<stop stop-color="#9945FF"/>
<stop offset="1" stop-color="#20E19F"/>
</linearGradient>
<clipPath id="clip0_53_170">
<rect width="22" height="22" fill="white"/>
</clipPath>
<clipPath id="clip1_53_170">
<rect width="22" height="22" fill="white"/>
</clipPath>
</defs>
</svg>
