<svg width="24" height="24" viewBox="0 0 24 24" fill="none" xmlns="http://www.w3.org/2000/svg">
<path d="M22 5.91691C21.2483 6.23737 20.4534 6.44921 19.64 6.54585C20.4982 6.04203 21.1413 5.24942 21.45 4.31506C20.6436 4.78683 19.7608 5.11923 18.84 5.29779C18.2245 4.64189 17.405 4.20529 16.5098 4.05646C15.6147 3.90763 14.6945 4.05499 13.8938 4.47543C13.093 4.89587 12.4569 5.56561 12.0852 6.37961C11.7135 7.19361 11.6273 8.10582 11.84 8.97319C10.2094 8.89214 8.61444 8.4749 7.15865 7.74857C5.70287 7.02225 4.41885 6.00309 3.39 4.75729C3.02914 5.37657 2.83952 6.0779 2.84 6.79153C2.83872 7.45427 3.00422 8.10703 3.32176 8.6917C3.63929 9.27637 4.09902 9.77481 4.66 10.1426C4.00798 10.1252 3.36989 9.95326 2.8 9.64144V9.69058C2.80489 10.6191 3.13599 11.5176 3.73731 12.2338C4.33864 12.9501 5.17326 13.4403 6.1 13.6215C5.74326 13.7282 5.37287 13.7844 5 13.7886C4.74189 13.7856 4.48442 13.7626 4.23 13.7198C4.49391 14.5185 5.00462 15.2166 5.69107 15.7168C6.37753 16.217 7.20558 16.4945 8.06 16.5107C6.6172 17.6264 4.83588 18.2352 3 18.2403C2.66574 18.2414 2.33174 18.2217 2 18.1813C3.87443 19.3707 6.05881 20.0021 8.29 19.9994C9.82969 20.0151 11.3571 19.7292 12.7831 19.1583C14.2091 18.5873 15.505 17.7429 16.5952 16.6743C17.6854 15.6057 18.548 14.3343 19.1326 12.9345C19.7172 11.5346 20.012 10.0343 20 8.52113C20 8.35407 20 8.17718 20 8.00029C20.7847 7.42521 21.4615 6.72021 22 5.91691Z" fill="#0C0839"/>
</svg>
