<svg width="30" height="30" viewBox="0 0 30 30" fill="none" xmlns="http://www.w3.org/2000/svg">
<g clip-path="url(#clip0_340_87535)">
<path d="M25.3196 6.81396H18.8193V8.43902H25.3196V25.5021H18.8193V27.1272H26.9446V8.43902C26.9446 8.00803 26.7734 7.59469 26.4687 7.28993C26.1639 6.98518 25.7506 6.81396 25.3196 6.81396Z" fill="#ABABAB"/>
<path d="M16.2838 2.75146H5.10342C4.64657 2.75146 4.20843 2.93295 3.88539 3.25599C3.56234 3.57903 3.38086 4.01718 3.38086 4.47403V27.1274H18.0064V4.47403C18.0064 4.01718 17.8249 3.57903 17.5019 3.25599C17.1788 2.93295 16.7407 2.75146 16.2838 2.75146ZM16.3813 25.5023H13.9437V23.0647H7.44351V25.5023H5.00592V4.47403C5.00592 4.46122 5.00844 4.44854 5.01334 4.43671C5.01824 4.42488 5.02542 4.41414 5.03448 4.40508C5.04353 4.39603 5.05428 4.38885 5.06611 4.38395C5.07794 4.37905 5.09062 4.37652 5.10342 4.37652H16.2838C16.2966 4.37652 16.3093 4.37905 16.3211 4.38395C16.333 4.38885 16.3437 4.39603 16.3528 4.40508C16.3618 4.41414 16.369 4.42488 16.3739 4.43671C16.3788 4.44854 16.3813 4.46122 16.3813 4.47403V25.5023Z" fill="#ABABAB"/>
<path d="M6.63184 6.81494H8.2569V8.44H6.63184V6.81494Z" fill="#ABABAB"/>
<path d="M9.88281 6.81494H11.5079V8.44H9.88281V6.81494Z" fill="#ABABAB"/>
<path d="M13.1309 6.81396H14.7559V8.43902H13.1309V6.81396Z" fill="#ABABAB"/>
<path d="M6.63184 10.8774H8.2569V12.5025H6.63184V10.8774Z" fill="#ABABAB"/>
<path d="M9.88281 10.8774H11.5079V12.5025H9.88281V10.8774Z" fill="#ABABAB"/>
<path d="M13.1309 10.8774H14.7559V12.5025H13.1309V10.8774Z" fill="#ABABAB"/>
<path d="M6.63184 14.9395H8.2569V16.5645H6.63184V14.9395Z" fill="#ABABAB"/>
<path d="M9.88281 14.9395H11.5079V16.5645H9.88281V14.9395Z" fill="#ABABAB"/>
<path d="M13.1309 14.9395H14.7559V16.5645H13.1309V14.9395Z" fill="#ABABAB"/>
<path d="M6.63184 19.002H8.2569V20.627H6.63184V19.002Z" fill="#ABABAB"/>
<path d="M9.88281 19.002H11.5079V20.627H9.88281V19.002Z" fill="#ABABAB"/>
<path d="M13.1309 19.002H14.7559V20.627H13.1309V19.002Z" fill="#ABABAB"/>
<path d="M18.8193 10.8774H20.4444V12.5025H18.8193V10.8774Z" fill="#ABABAB"/>
<path d="M22.0693 10.8774H23.6944V12.5025H22.0693V10.8774Z" fill="#ABABAB"/>
<path d="M18.8193 14.9395H20.4444V16.5645H18.8193V14.9395Z" fill="#ABABAB"/>
<path d="M22.0693 14.9395H23.6944V16.5645H22.0693V14.9395Z" fill="#ABABAB"/>
<path d="M18.8193 19.002H20.4444V20.627H18.8193V19.002Z" fill="#ABABAB"/>
<path d="M22.0693 19.002H23.6944V20.627H22.0693V19.002Z" fill="#ABABAB"/>
</g>
<defs>
<clipPath id="clip0_340_87535">
<rect width="29.2511" height="29.2511" fill="white" transform="translate(0.131836 0.313965)"/>
</clipPath>
</defs>
</svg>
