<svg width="22" height="22" viewBox="0 0 22 22" fill="none" xmlns="http://www.w3.org/2000/svg">
<path d="M16.5946 2H6.40541C5.62804 2 5 2.61875 5 3.38462V18.6154C5 19.3813 5.62804 20 6.40541 20H16.5946C17.372 20 18 19.3813 18 18.6154V3.38462C18 2.61875 17.372 2 16.5946 2ZM16.0676 13.7692V17.2308C16.0676 17.8063 15.5976 18.2692 15.0135 18.2692C14.4294 18.2692 13.9595 17.8063 13.9595 17.2308V13.7692C13.9595 13.1938 14.4294 12.7308 15.0135 12.7308C15.5976 12.7308 16.0676 13.1938 16.0676 13.7692ZM16.0676 10.3077C16.0676 10.8832 15.5976 11.3462 15.0135 11.3462C14.4294 11.3462 13.9595 10.8832 13.9595 10.3077C13.9595 9.73221 14.4294 9.26923 15.0135 9.26923C15.5976 9.26923 16.0676 9.73221 16.0676 10.3077ZM12.5541 17.2308C12.5541 17.8063 12.0841 18.2692 11.5 18.2692C10.9159 18.2692 10.4459 17.8063 10.4459 17.2308C10.4459 16.6553 10.9159 16.1923 11.5 16.1923C12.0841 16.1923 12.5541 16.6553 12.5541 17.2308ZM12.5541 13.7692C12.5541 14.3447 12.0841 14.8077 11.5 14.8077C10.9159 14.8077 10.4459 14.3447 10.4459 13.7692C10.4459 13.1938 10.9159 12.7308 11.5 12.7308C12.0841 12.7308 12.5541 13.1938 12.5541 13.7692ZM12.5541 10.3077C12.5541 10.8832 12.0841 11.3462 11.5 11.3462C10.9159 11.3462 10.4459 10.8832 10.4459 10.3077C10.4459 9.73221 10.9159 9.26923 11.5 9.26923C12.0841 9.26923 12.5541 9.73221 12.5541 10.3077ZM9.04054 17.2308C9.04054 17.8063 8.57061 18.2692 7.98649 18.2692C7.40236 18.2692 6.93243 17.8063 6.93243 17.2308C6.93243 16.6553 7.40236 16.1923 7.98649 16.1923C8.57061 16.1923 9.04054 16.6553 9.04054 17.2308ZM9.04054 13.7692C9.04054 14.3447 8.57061 14.8077 7.98649 14.8077C7.40236 14.8077 6.93243 14.3447 6.93243 13.7692C6.93243 13.1938 7.40236 12.7308 7.98649 12.7308C8.57061 12.7308 9.04054 13.1938 9.04054 13.7692ZM9.04054 10.3077C9.04054 10.8832 8.57061 11.3462 7.98649 11.3462C7.40236 11.3462 6.93243 10.8832 6.93243 10.3077C6.93243 9.73221 7.40236 9.26923 7.98649 9.26923C8.57061 9.26923 9.04054 9.73221 9.04054 10.3077ZM6.93243 6.84615V4.76923C6.93243 4.38846 7.24865 4.07692 7.63514 4.07692H15.3649C15.7514 4.07692 16.0676 4.38846 16.0676 4.76923V6.84615C16.0676 7.22692 15.7514 7.53846 15.3649 7.53846H7.63514C7.24865 7.53846 6.93243 7.22692 6.93243 6.84615Z" fill="url(#paint0_linear_1159_3807)"/>
<defs>
<linearGradient id="paint0_linear_1159_3807" x1="5" y1="-1.75005" x2="18.1888" y2="-1.63495" gradientUnits="userSpaceOnUse">
<stop stop-color="#9945FF"/>
<stop offset="1" stop-color="#20E19F"/>
</linearGradient>
</defs>
</svg>
