<svg width="13" height="12" viewBox="0 0 13 12" fill="none" xmlns="http://www.w3.org/2000/svg">
<g clip-path="url(#clip0_244_42706)">
<path fill-rule="evenodd" clip-rule="evenodd" d="M11.3263 1.5C11.3263 1.30109 11.2467 1.11032 11.1051 0.96967C10.9635 0.829018 10.7714 0.75 10.5712 0.75H1.51017C1.30991 0.75 1.11785 0.829018 0.976244 0.96967C0.834638 1.11032 0.755085 1.30109 0.755085 1.5V10.5C0.755085 10.6989 0.834638 10.8897 0.976244 11.0303C1.11785 11.171 1.30991 11.25 1.51017 11.25H10.5712C10.7714 11.25 10.9635 11.171 11.1051 11.0303C11.2467 10.8897 11.3263 10.6989 11.3263 10.5V1.5ZM0 1.5C0 1.10218 0.159107 0.720644 0.442318 0.43934C0.72553 0.158035 1.10965 0 1.51017 0L10.5712 0C10.9717 0 11.3558 0.158035 11.639 0.43934C11.9222 0.720644 12.0814 1.10218 12.0814 1.5V10.5C12.0814 10.8978 11.9222 11.2794 11.639 11.5607C11.3558 11.842 10.9717 12 10.5712 12H1.51017C1.10965 12 0.72553 11.842 0.442318 11.5607C0.159107 11.2794 0 10.8978 0 10.5V1.5ZM4.42027 8.10225C4.34947 8.17267 4.25342 8.21226 4.15323 8.21233C4.05305 8.2124 3.95694 8.17294 3.88604 8.10262C3.81515 8.03231 3.77528 7.9369 3.77521 7.83739C3.77514 7.73788 3.81487 7.64241 3.88567 7.572L6.97925 4.5H4.88917C4.78904 4.5 4.69301 4.46049 4.62221 4.39016C4.55141 4.31984 4.51163 4.22446 4.51163 4.125C4.51163 4.02554 4.55141 3.93016 4.62221 3.85984C4.69301 3.78951 4.78904 3.75 4.88917 3.75H7.89064C7.99077 3.75 8.0868 3.78951 8.1576 3.85984C8.2284 3.93016 8.26818 4.02554 8.26818 4.125V7.10625C8.26818 7.20571 8.2284 7.30109 8.1576 7.37142C8.0868 7.44174 7.99077 7.48125 7.89064 7.48125C7.7905 7.48125 7.69448 7.44174 7.62367 7.37142C7.55287 7.30109 7.51309 7.20571 7.51309 7.10625V5.03025L4.42027 8.10225Z" fill="black"/>
</g>
<defs>
<clipPath id="clip0_244_42706">
<rect width="12.0814" height="12" fill="white"/>
</clipPath>
</defs>
</svg>
