<svg width="24" height="15" viewBox="0 0 24 15" fill="none" xmlns="http://www.w3.org/2000/svg">
<path d="M1.59863 14.2862V9.63601C1.60116 8.93191 1.94131 8.25724 2.5448 7.75936C3.1483 7.26148 3.96609 6.98086 4.81955 6.97878H19.3137C20.1671 6.98086 20.9849 7.26148 21.5884 7.75936C22.1919 8.25724 22.5321 8.93191 22.5346 9.63601V14.2862M18.5084 6.97878H4.01432V2.66077C4.01591 2.22071 4.22852 1.79905 4.6057 1.48788C4.98288 1.17671 5.49398 1.00131 6.02739 1H18.1058C18.6392 1.00131 19.1504 1.17671 19.5275 1.48788C19.9047 1.79905 20.1173 2.22071 20.1189 2.66077V6.97878H18.5084Z" stroke="#004AAD" stroke-width="1.31414" stroke-linecap="round" stroke-linejoin="round"/>
<path d="M1.59863 14.2857V13.9535C1.59956 13.6895 1.72712 13.4365 1.95343 13.2498C2.17974 13.0631 2.48642 12.9578 2.80648 12.9571H21.3267C21.6468 12.9578 21.9535 13.0631 22.1798 13.2498C22.4061 13.4365 22.5337 13.6895 22.5346 13.9535V14.2857M4.81955 6.97828V6.31397C4.82075 5.9619 4.9908 5.62453 5.29256 5.37558C5.59432 5.12663 6.00326 4.98634 6.43001 4.98535H10.4562C10.8829 4.98634 11.2918 5.12663 11.5936 5.37558C11.8954 5.62453 12.0654 5.9619 12.0666 6.31397V6.97828M12.0666 6.97828V6.31397C12.0678 5.9619 12.2379 5.62453 12.5396 5.37558C12.8414 5.12663 13.2503 4.98634 13.6771 4.98535H17.7032C18.13 4.98634 18.5389 5.12663 18.8407 5.37558C19.1424 5.62453 19.3125 5.9619 19.3137 6.31397V6.97828" stroke="#004AAD" stroke-width="1.31414" stroke-linecap="round" stroke-linejoin="round"/>
</svg>
