<svg width="28" height="29" viewBox="0 0 28 29" fill="none" xmlns="http://www.w3.org/2000/svg">
<g clip-path="url(#clip0_283_3844)">
<g clip-path="url(#clip1_283_3844)">
<path d="M22.4615 15.3987V13.2586H20.7692V15.7413C20.7693 15.9608 20.8585 16.1713 21.0172 16.3265L23.3077 18.5667V19.8793H4.6923V18.5667L6.98284 16.3265C7.14154 16.1713 7.23071 15.9608 7.23076 15.7413V12.431C7.2284 11.2681 7.53986 10.1251 8.13368 9.11763C8.7275 8.11011 9.58264 7.2737 10.6127 6.69288C11.6428 6.11206 12.8114 5.8074 14.0004 5.80966C15.1895 5.81193 16.3568 6.12104 17.3846 6.70579V4.85613C16.5791 4.50733 15.7224 4.285 14.8462 4.19738V2.5H13.1538V4.19655C11.0677 4.40421 9.1344 5.36106 7.72777 6.88204C6.32113 8.40304 5.54108 10.3801 5.53846 12.431V15.3987L3.24792 17.639C3.08922 17.7942 3.00004 18.0046 3 18.2241V20.7068C3 20.9263 3.08914 21.1369 3.24782 21.2921C3.40651 21.4473 3.62174 21.5345 3.84615 21.5345H9.76922V22.362C9.76922 23.4595 10.215 24.512 11.0084 25.288C11.8018 26.064 12.8779 26.5 13.9999 26.5C15.122 26.5 16.1981 26.064 16.9916 25.288C17.785 24.512 18.2307 23.4595 18.2307 22.362V21.5345H24.1538C24.3783 21.5345 24.5934 21.4473 24.7521 21.2921C24.9108 21.1369 25 20.9263 25 20.7068V18.2241C24.9999 18.0046 24.9107 17.7942 24.752 17.639L22.4615 15.3987ZM16.5384 22.362C16.5384 23.0205 16.271 23.652 15.7949 24.1176C15.3189 24.5832 14.6732 24.8448 13.9999 24.8448C13.3267 24.8448 12.6811 24.5832 12.205 24.1176C11.7289 23.652 11.4615 23.0205 11.4615 22.362V21.5345H16.5384V22.362Z" fill="#954AFC"/>
<path d="M22.4999 11.5C24.433 11.5 26 9.93297 26 7.99998C26 6.06699 24.433 4.5 22.4999 4.5C20.567 4.5 19 6.06699 19 7.99998C19 9.93297 20.567 11.5 22.4999 11.5Z" fill="#954AFC"/>
</g>
</g>
<defs>
<clipPath id="clip0_283_3844">
<rect width="28" height="28" fill="white" transform="translate(0 0.5)"/>
</clipPath>
<clipPath id="clip1_283_3844">
<rect width="28" height="28" fill="white" transform="translate(0 0.5)"/>
</clipPath>
</defs>
</svg>
