<svg width="21" height="21" viewBox="0 0 21 21" fill="none" xmlns="http://www.w3.org/2000/svg">
<g clip-path="url(#clip0_813_3888)">
<path d="M10.5 21C16.299 21 21 16.299 21 10.5C21 4.70101 16.299 0 10.5 0C4.70101 0 0 4.70101 0 10.5C0 16.299 4.70101 21 10.5 21Z" fill="#F7931A"/>
<path d="M15.2183 9.20063C15.4243 7.82513 14.3763 7.08553 12.9444 6.59203L13.409 4.72828L12.275 4.44609L11.8222 6.26063C11.5242 6.18581 11.2184 6.11625 10.9133 6.04669L11.3694 4.22034L10.2354 3.9375L9.77073 5.80059C9.52355 5.74503 9.28205 5.68816 9.04623 5.62997L9.04755 5.62406L7.48305 5.23359L7.18117 6.44503C7.18117 6.44503 8.02314 6.63797 8.00542 6.64978C8.4648 6.76463 8.54748 7.06847 8.5337 7.30997L8.00477 9.43294C8.0367 9.44038 8.07608 9.45284 8.12289 9.47034L8.0028 9.44081L7.26123 12.4149C7.2048 12.5541 7.06239 12.7634 6.74083 12.684C6.75264 12.7004 5.91658 12.4786 5.91658 12.4786L5.35352 13.7767L6.83008 14.1448C7.10439 14.2137 7.37345 14.2859 7.63792 14.3535L7.1687 16.2383L8.30205 16.5204L8.76667 14.6567C9.07598 14.7398 9.37742 14.8179 9.67098 14.891L9.20767 16.7468L10.3417 17.029L10.8109 15.1482C12.7455 15.5144 14.1998 15.3668 14.812 13.6172C15.3055 12.2089 14.7878 11.3958 13.7699 10.8662C14.5115 10.6956 15.0693 10.208 15.2183 9.20063ZM12.6261 12.8349C12.2763 14.2439 9.90395 13.482 9.13483 13.291L9.75827 10.794C10.5274 10.9863 12.9929 11.3663 12.6261 12.8349ZM12.9772 9.18028C12.6576 10.4619 10.6836 9.81028 10.0437 9.65081L10.6081 7.38675C11.248 7.54622 13.3105 7.8435 12.9772 9.18028Z" fill="white"/>
</g>
<defs>
<clipPath id="clip0_813_3888">
<rect width="21" height="21" fill="white"/>
</clipPath>
</defs>
</svg>
