<svg width="13" height="12" viewBox="0 0 13 12" fill="none" xmlns="http://www.w3.org/2000/svg">
<path d="M10.739 1.2H10.0678V0H8.72542V1.2H3.35593V0H2.01356V1.2H1.34237C0.597356 1.2 0.00671186 1.74 0.00671186 2.4L0 10.8C0 11.1183 0.141428 11.4235 0.393172 11.6485C0.644916 11.8736 0.986353 12 1.34237 12H10.739C11.4773 12 12.0814 11.46 12.0814 10.8V2.4C12.0814 1.74 11.4773 1.2 10.739 1.2ZM10.739 10.8H1.34237V4.8H10.739V10.8ZM10.739 3.6H1.34237V2.4H10.739V3.6ZM4.02712 7.2H2.68475V6H4.02712V7.2ZM6.71186 7.2H5.36949V6H6.71186V7.2ZM9.39661 7.2H8.05424V6H9.39661V7.2ZM4.02712 9.6H2.68475V8.4H4.02712V9.6ZM6.71186 9.6H5.36949V8.4H6.71186V9.6ZM9.39661 9.6H8.05424V8.4H9.39661V9.6Z" fill="black"/>
</svg>
