<svg width="20" height="19" viewBox="0 0 20 19" fill="none" xmlns="http://www.w3.org/2000/svg">
<path d="M0.456449 1.21303C0.456449 1.04257 0.528652 0.879094 0.657175 0.75856C0.785697 0.638027 0.960011 0.570312 1.14177 0.570312H1.74211C2.73857 0.570312 3.3115 1.17832 3.64319 1.78505C3.86935 2.20025 4.03245 2.70671 4.16815 3.14633H18.2789C18.4907 3.14639 18.6996 3.19248 18.8892 3.28097C19.0788 3.36947 19.2439 3.49797 19.3717 3.65639C19.4995 3.81481 19.5863 3.99883 19.6255 4.19403C19.6647 4.38922 19.6551 4.59028 19.5975 4.78141L17.547 11.5621C17.3839 12.1001 17.0382 12.5735 16.5623 12.9105C16.0864 13.2476 15.5062 13.4299 14.9099 13.4298H7.94838C7.34704 13.43 6.76232 13.2448 6.2843 12.9026C5.80628 12.5605 5.46149 12.0804 5.30304 11.5364L4.42309 8.50918C4.41804 8.49561 4.41347 8.4819 4.40938 8.46805L2.99625 3.97287L2.85918 3.53968C2.72212 3.09491 2.6015 2.70157 2.42058 2.37121C2.20265 1.97273 2.00253 1.85704 1.74074 1.85704H1.1404C0.958641 1.85704 0.784326 1.78932 0.655804 1.66879C0.527281 1.54826 0.455078 1.38478 0.455078 1.21432L0.456449 1.21303ZM5.73068 8.12098L6.62571 11.2009C6.70506 11.4728 6.87751 11.7127 7.11651 11.8836C7.35551 12.0546 7.6478 12.1471 7.94838 12.147H14.9112C15.2093 12.1467 15.4991 12.0553 15.7368 11.8867C15.9745 11.718 16.1471 11.4814 16.2284 11.2125L18.2789 4.43177H4.57249L5.73068 8.11969V8.12098ZM10.0551 16.6422C10.0551 17.1535 9.83844 17.644 9.45288 18.0056C9.06731 18.3672 8.54436 18.5703 7.99909 18.5703C7.45381 18.5703 6.93087 18.3672 6.5453 18.0056C6.15974 17.644 5.94313 17.1535 5.94313 16.6422C5.94313 16.1308 6.15974 15.6403 6.5453 15.2787C6.93087 14.9171 7.45381 14.714 7.99909 14.714C8.54436 14.714 9.06731 14.9171 9.45288 15.2787C9.83844 15.6403 10.0551 16.1308 10.0551 16.6422ZM8.68441 16.6422C8.68441 16.4717 8.61221 16.3082 8.48369 16.1877C8.35516 16.0671 8.18085 15.9994 7.99909 15.9994C7.81733 15.9994 7.64302 16.0671 7.51449 16.1877C7.38597 16.3082 7.31377 16.4717 7.31377 16.6422C7.31377 16.8126 7.38597 16.9761 7.51449 17.0966C7.64302 17.2172 7.81733 17.2849 7.99909 17.2849C8.18085 17.2849 8.35516 17.2172 8.48369 17.0966C8.61221 16.9761 8.68441 16.8126 8.68441 16.6422ZM16.9083 16.6422C16.9083 17.1535 16.6917 17.644 16.3061 18.0056C15.9205 18.3672 15.3976 18.5703 14.8523 18.5703C14.307 18.5703 13.7841 18.3672 13.3985 18.0056C13.0129 17.644 12.7963 17.1535 12.7963 16.6422C12.7963 16.1308 13.0129 15.6403 13.3985 15.2787C13.7841 14.9171 14.307 14.714 14.8523 14.714C15.3976 14.714 15.9205 14.9171 16.3061 15.2787C16.6917 15.6403 16.9083 16.1308 16.9083 16.6422ZM15.5376 16.6422C15.5376 16.4717 15.4654 16.3082 15.3369 16.1877C15.2084 16.0671 15.0341 15.9994 14.8523 15.9994C14.6705 15.9994 14.4962 16.0671 14.3677 16.1877C14.2392 16.3082 14.167 16.4717 14.167 16.6422C14.167 16.8126 14.2392 16.9761 14.3677 17.0966C14.4962 17.2172 14.6705 17.2849 14.8523 17.2849C15.0341 17.2849 15.2084 17.2172 15.3369 17.0966C15.4654 16.9761 15.5376 16.8126 15.5376 16.6422Z" fill="black"/>
</svg>
