<svg width="30" height="30" viewBox="0 0 30 30" fill="none" xmlns="http://www.w3.org/2000/svg">
<path d="M11.8832 14.0253C13.2406 14.0253 14.2178 15.3937 15.2525 16.8417C16.4518 18.5209 17.812 20.424 20.11 20.424C25.293 20.424 27.2217 10.5609 27.4228 9.45486L25.6239 9.12761C25.1833 11.5408 23.2125 18.5958 20.11 18.5958C18.7526 18.5958 17.7754 17.2274 16.7407 15.7795C15.5414 14.1003 14.1812 12.1971 11.8832 12.1971C8.05677 12.1971 5.07774 18.9651 3.65632 22.9487V2.14209H1.82812V25.9086C1.82861 26.3933 2.02138 26.858 2.36412 27.2008C2.70687 27.5435 3.1716 27.7363 3.65632 27.7368H27.4228V25.9086H4.61063C5.99092 21.2074 9.10798 14.0253 11.8832 14.0253Z" fill="#ABABAB"/>
</svg>
