<svg width="19" height="18" viewBox="0 0 19 18" fill="none" xmlns="http://www.w3.org/2000/svg">
<path d="M11.893 2.25C10.8776 2.25 9.95729 2.439 9.23808 2.79506C8.51943 3.15112 7.92876 3.73106 7.92876 4.5V6.75C7.92876 6.82256 7.95311 6.89288 7.96444 6.96094C7.39757 6.81786 6.81469 6.74698 6.22982 6.75C5.21442 6.75 4.29416 6.939 3.57494 7.29506C2.85629 7.65112 2.26562 8.23106 2.26562 9V13.5C2.26562 14.2689 2.85629 14.8489 3.57551 15.2049C4.29416 15.561 5.21442 15.75 6.22982 15.75C7.24522 15.75 8.16548 15.561 8.8847 15.2049C9.60278 14.8489 10.194 14.2689 10.194 13.5V13.2716C10.748 13.4204 11.3191 13.4971 11.893 13.5C12.9084 13.5 13.8286 13.311 14.5478 12.9549C15.2659 12.5989 15.8571 12.0189 15.8571 11.25V4.5C15.8571 3.73106 15.2665 3.15112 14.5473 2.79506C13.8292 2.439 12.9089 2.25 11.893 2.25ZM11.893 3.375C12.7555 3.375 13.5234 3.5595 14.0342 3.81431C14.5456 4.06913 14.7245 4.33744 14.7245 4.5C14.7245 4.66313 14.5456 4.93087 14.0342 5.18569C13.5239 5.4405 12.7555 5.625 11.893 5.625C11.0305 5.625 10.2625 5.4405 9.75172 5.18569C9.24034 4.93087 9.06139 4.66256 9.06139 4.5C9.06139 4.33687 9.24034 4.06913 9.75172 3.81431C10.262 3.5595 11.0305 3.375 11.893 3.375ZM9.06139 6.09975C9.12085 6.13238 9.17635 6.17456 9.23864 6.20494C9.95729 6.561 10.8776 6.75 11.893 6.75C12.9084 6.75 13.8286 6.561 14.5478 6.20494C14.6096 6.17456 14.6651 6.13238 14.7245 6.09975V6.75C14.7245 6.91313 14.5456 7.18087 14.0342 7.43569C13.5234 7.6905 12.7555 7.875 11.893 7.875C11.0305 7.875 10.2625 7.6905 9.75172 7.43569C9.24034 7.18087 9.06139 6.91256 9.06139 6.75V6.09975ZM6.22982 7.875C7.09232 7.875 7.86024 8.0595 8.37105 8.31431C8.88243 8.56913 9.06139 8.83744 9.06139 9C9.06139 9.16313 8.88243 9.43087 8.37105 9.68569C7.86024 9.9405 7.09232 10.125 6.22982 10.125C5.36732 10.125 4.5994 9.9405 4.08859 9.68569C3.57721 9.43087 3.39825 9.16256 3.39825 9C3.39825 8.83687 3.57721 8.56913 4.08859 8.31431C4.59884 8.0595 5.36732 7.875 6.22982 7.875ZM14.7245 8.34975V9C14.7245 9.16313 14.5456 9.43087 14.0342 9.68569C13.5234 9.9405 12.7555 10.125 11.893 10.125C11.3161 10.1281 10.7424 10.039 10.194 9.86119V9C10.194 8.92744 10.1697 8.85712 10.1583 8.78906C10.685 8.92519 11.2689 9 11.893 9C12.9084 9 13.8286 8.811 14.5478 8.45494C14.6096 8.42456 14.6651 8.38237 14.7245 8.34975ZM3.39825 10.5997C3.45771 10.6324 3.51321 10.6746 3.57551 10.7049C4.29416 11.061 5.21442 11.25 6.22982 11.25C7.24522 11.25 8.16548 11.061 8.8847 10.7049C8.94643 10.6746 9.00192 10.6324 9.06139 10.5997V11.25C9.06139 11.4131 8.88243 11.6809 8.37105 11.9357C7.86024 12.1905 7.09232 12.375 6.22982 12.375C5.36732 12.375 4.5994 12.1905 4.08859 11.9357C3.57721 11.6809 3.39825 11.4126 3.39825 11.25V10.5997ZM14.7245 10.5997V11.25C14.7245 11.4131 14.5456 11.6809 14.0342 11.9357C13.5234 12.1905 12.7555 12.375 11.893 12.375C11.2491 12.375 10.6675 12.285 10.194 12.1286V11.0391C10.7139 11.1752 11.2802 11.25 11.893 11.25C12.9084 11.25 13.8286 11.061 14.5478 10.7049C14.6096 10.6746 14.6651 10.6324 14.7245 10.5997ZM3.39825 12.8497C3.45771 12.8824 3.51321 12.9246 3.57551 12.9549C4.29416 13.311 5.21442 13.5 6.22982 13.5C7.24522 13.5 8.16548 13.311 8.8847 12.9549C8.94643 12.9246 9.00192 12.8824 9.06139 12.8497V13.5C9.06139 13.6631 8.88243 13.9309 8.37105 14.1857C7.86024 14.4405 7.09232 14.625 6.22982 14.625C5.36732 14.625 4.5994 14.4405 4.08859 14.1857C3.57721 13.9309 3.39825 13.6626 3.39825 13.5V12.8497Z" fill="#111111"/>
</svg>
