<svg width="21" height="21" viewBox="0 0 21 21" fill="none" xmlns="http://www.w3.org/2000/svg">
<g clip-path="url(#clip0_340_87450)">
<path d="M19.5174 11.054L15.4775 9.18947V3.84712C15.4757 3.73504 15.4417 3.62586 15.3797 3.53259C15.3177 3.43932 15.2302 3.3659 15.1278 3.32107L10.7557 1.30454C10.6789 1.26893 10.5954 1.25049 10.5108 1.25049C10.4263 1.25049 10.3427 1.26893 10.266 1.30454L5.89387 3.32107C5.79269 3.36803 5.70705 3.44309 5.64712 3.53737C5.58719 3.63164 5.55549 3.74117 5.55576 3.85297V9.19531L1.53342 11.054C1.43224 11.101 1.3466 11.1761 1.28667 11.2703C1.22674 11.3646 1.19504 11.4741 1.19531 11.5859V17.3024C1.19504 17.4142 1.22674 17.5237 1.28667 17.618C1.3466 17.7122 1.43224 17.7873 1.53342 17.8343L5.90553 19.8508C5.98227 19.8864 6.06582 19.9048 6.15037 19.9048C6.23493 19.9048 6.31847 19.8864 6.39521 19.8508L10.5225 17.9453L14.6498 19.8508C14.7265 19.8864 14.81 19.9048 14.8946 19.9048C14.9791 19.9048 15.0627 19.8864 15.1394 19.8508L19.5115 17.8343C19.6127 17.7873 19.6984 17.7122 19.7583 17.618C19.8182 17.5237 19.8499 17.4142 19.8496 17.3024V11.5859C19.8504 11.4748 19.8196 11.3657 19.7607 11.2715C19.7019 11.1773 19.6175 11.1018 19.5174 11.054ZM17.8793 11.5859L14.9004 12.9478L11.9216 11.5859L14.9004 10.2123L17.8793 11.5859ZM10.5225 2.47354L13.5013 3.84712L10.5225 5.2207L7.54945 3.84712L10.5225 2.47354ZM6.15037 10.2065L9.12924 11.5801L6.15037 12.9478L3.17151 11.5859L6.15037 10.2065ZM9.93953 16.9224L6.15037 18.6759L2.36121 16.9224V12.4978L5.90553 14.1168C5.98069 14.1507 6.06215 14.1682 6.14454 14.1682C6.22694 14.1682 6.3084 14.1507 6.38355 14.1168L9.92787 12.4802L9.93953 16.9224ZM6.73332 9.18947V4.76479L10.2776 6.4014C10.3544 6.43701 10.4379 6.45545 10.5225 6.45545C10.607 6.45545 10.6906 6.43701 10.7673 6.4014L14.3116 4.76479V9.19531L10.5225 10.9488L6.73332 9.18947ZM18.6896 16.9283L14.9004 18.6818L11.1054 16.9283V12.4919L14.6556 14.1168C14.7299 14.1498 14.8104 14.1669 14.8917 14.1669C14.973 14.1669 15.0534 14.1498 15.1278 14.1168L18.6721 12.4802L18.6896 16.9283Z" fill="#6B7380"/>
</g>
<defs>
<clipPath id="clip0_340_87450">
<rect width="20.4928" height="20.4928" fill="white" transform="translate(0 0.00683594)"/>
</clipPath>
</defs>
</svg>
