<svg width="26" height="26" viewBox="0 0 26 26" fill="none" xmlns="http://www.w3.org/2000/svg">
<path d="M20.2472 12.4909C19.6297 12.3284 18.9038 12.2417 18.0372 12.2417C16.8347 12.2417 16.3905 12.5342 15.773 13C15.7405 13.0217 15.708 13.0542 15.6755 13.0867L14.6463 14.1809C13.7905 15.1017 12.2197 15.1017 11.353 14.1809L10.3238 13.0975C10.2913 13.0542 10.2588 13.0217 10.2263 13C9.59799 12.5342 9.15383 12.2417 7.96216 12.2417C7.09549 12.2417 6.36966 12.3175 5.75216 12.4909C3.17383 13.1842 3.17383 15.2317 3.17383 17.03V18.0375C3.17383 20.7567 3.17383 23.8334 8.96966 23.8334H17.0297C20.8755 23.8334 22.8255 21.8834 22.8255 18.0375V17.03C22.8255 15.2317 22.8255 13.1842 20.2472 12.4909Z" fill="#0C0839"/>
<path d="M16.0228 2.16675H9.97779C5.18945 2.16675 5.18945 4.71258 5.18945 6.95508V10.9634C5.23279 10.9417 5.28695 10.9309 5.33029 10.9201C6.08862 10.7142 6.94445 10.6167 7.96279 10.6167C9.63112 10.6167 10.422 11.1042 11.202 11.7001C11.3103 11.7759 11.4186 11.8734 11.5161 11.9817L12.5345 13.0542C12.6428 13.1734 12.8161 13.2384 13.0003 13.2384C13.1845 13.2384 13.3578 13.1734 13.4553 13.0651L14.4953 11.9709C14.582 11.8842 14.6795 11.7867 14.7878 11.7109C15.5895 11.1042 16.3695 10.6167 18.0378 10.6167C19.0561 10.6167 19.912 10.7142 20.6703 10.9201C20.7136 10.9309 20.7678 10.9417 20.8111 10.9634V6.95508C20.8111 4.71258 20.8111 2.16675 16.0228 2.16675ZM14.6795 9.20842H11.3211C10.9095 9.20842 10.5628 8.86175 10.5628 8.45008C10.5628 8.02758 10.9095 7.69175 11.3211 7.69175H14.6795C15.0911 7.69175 15.4378 8.02758 15.4378 8.45008C15.4378 8.86175 15.0911 9.20842 14.6795 9.20842ZM15.5245 6.18591H10.4761C10.0645 6.18591 9.72862 5.83925 9.72862 5.42758C9.72862 5.00508 10.0645 4.66925 10.4761 4.66925H15.5245C15.9361 4.66925 16.272 5.00508 16.272 5.42758C16.272 5.83925 15.9361 6.18591 15.5245 6.18591Z" fill="#0C0839"/>
</svg>
