<svg width="26" height="26" viewBox="0 0 26 26" fill="none" xmlns="http://www.w3.org/2000/svg">
<path d="M12.1876 8.75342V11.8518L11.0934 11.4726C10.5409 11.2776 10.2051 11.0934 10.2051 10.1509C10.2051 9.38175 10.7792 8.75342 11.4834 8.75342H12.1876Z" fill="#0C0839"/>
<path d="M15.795 15.8493C15.795 16.6184 15.2208 17.2468 14.5167 17.2468H13.8125V14.1484L14.9067 14.5276C15.4592 14.7226 15.795 14.9068 15.795 15.8493Z" fill="#0C0839"/>
<path d="M17.5385 2.16675H8.46018C4.51685 2.16675 2.16602 4.51758 2.16602 8.46092V17.5392C2.16602 21.4826 4.51685 23.8334 8.46018 23.8334H17.5385C21.4818 23.8334 23.8327 21.4826 23.8327 17.5392V8.46092C23.8327 4.51758 21.4818 2.16675 17.5385 2.16675ZM15.4477 13.0001C16.2927 13.2926 17.4193 13.9101 17.4193 15.8492C17.4193 17.5176 16.1193 18.8717 14.516 18.8717H13.8118V19.5001C13.8118 19.9442 13.4435 20.3126 12.9993 20.3126C12.5552 20.3126 12.1868 19.9442 12.1868 19.5001V18.8717H11.7968C10.0202 18.8717 8.57935 17.3659 8.57935 15.5242C8.57935 15.0801 8.93685 14.7117 9.39185 14.7117C9.83602 14.7117 10.2043 15.0801 10.2043 15.5242C10.2043 16.4776 10.9193 17.2467 11.7968 17.2467H12.1868V13.5742L10.551 13.0001C9.70602 12.7076 8.57935 12.0901 8.57935 10.1509C8.57935 8.48258 9.87935 7.12841 11.4827 7.12841H12.1868V6.50008C12.1868 6.05591 12.5552 5.68758 12.9993 5.68758C13.4435 5.68758 13.8118 6.05591 13.8118 6.50008V7.12841H14.2018C15.9785 7.12841 17.4193 8.63425 17.4193 10.4759C17.4193 10.9201 17.0618 11.2884 16.6068 11.2884C16.1627 11.2884 15.7943 10.9201 15.7943 10.4759C15.7943 9.52258 15.0793 8.75342 14.2018 8.75342H13.8118V12.4259L15.4477 13.0001Z" fill="#0C0839"/>
</svg>
