<svg width="22" height="22" viewBox="0 0 22 22" fill="none" xmlns="http://www.w3.org/2000/svg">
<path d="M10.5 1C5.25379 1 1 5.25379 1 10.5C1 15.7462 5.25379 20 10.5 20C15.7462 20 20 15.7462 20 10.5C20 5.25379 15.7462 1 10.5 1ZM10.5 18.3884C6.14442 18.3884 2.61161 14.8556 2.61161 10.5C2.61161 6.14442 6.14442 2.61161 10.5 2.61161C14.8556 2.61161 18.3884 6.14442 18.3884 10.5C18.3884 14.8556 14.8556 18.3884 10.5 18.3884ZM11.5115 10.008L10.9729 9.88292V7.03504C11.7787 7.14531 12.277 7.65 12.3618 8.2692C12.3724 8.35402 12.4445 8.41551 12.5294 8.41551H13.4815C13.5811 8.41551 13.6596 8.32857 13.6511 8.22891C13.5218 6.90781 12.4339 6.0596 10.9814 5.91328V5.21987C10.9814 5.12656 10.905 5.05022 10.8117 5.05022H10.2158C10.1225 5.05022 10.0462 5.12656 10.0462 5.21987V5.91964C8.54487 6.06596 7.37009 6.89509 7.37009 8.44308C7.37009 9.87656 8.42612 10.5679 9.53516 10.8329L10.0589 10.9665V13.9925C9.12165 13.8674 8.59576 13.367 8.48761 12.6926C8.47489 12.6121 8.40279 12.5527 8.32009 12.5527H7.3404C7.24074 12.5527 7.16228 12.6375 7.17076 12.7372C7.26618 13.9035 8.15045 14.9764 10.0377 15.1143V15.7801C10.0377 15.8734 10.1141 15.9498 10.2074 15.9498H10.8096C10.9029 15.9498 10.9792 15.8734 10.9792 15.778L10.975 15.1058C12.6354 14.9595 13.8229 14.071 13.8229 12.4763C13.8208 11.0047 12.8856 10.3473 11.5115 10.008ZM10.0568 9.66451C9.93806 9.63058 9.83839 9.59877 9.73873 9.55848C9.02199 9.29978 8.68906 8.88203 8.68906 8.34341C8.68906 7.57366 9.27221 7.13471 10.0568 7.03504V9.66451ZM10.9729 13.9989V11.1637C11.0386 11.1828 11.098 11.1977 11.1595 11.2104C12.1625 11.5157 12.4997 11.9398 12.4997 12.5908C12.4997 13.42 11.8762 13.9183 10.9729 13.9989Z" fill="url(#paint0_linear_1159_3815)"/>
<defs>
<linearGradient id="paint0_linear_1159_3815" x1="1" y1="-2.95838" x2="20.2746" y2="-2.72548" gradientUnits="userSpaceOnUse">
<stop stop-color="#9945FF"/>
<stop offset="1" stop-color="#20E19F"/>
</linearGradient>
</defs>
</svg>
