<svg width="48" height="48" viewBox="0 0 48 48" fill="none" xmlns="http://www.w3.org/2000/svg">
<circle cx="24" cy="24" r="24" fill="#F5F5F5"/>
<g opacity="0.5">
<path d="M22 24C22 24.3956 22.1173 24.7822 22.3371 25.1111C22.5568 25.44 22.8692 25.6964 23.2346 25.8478C23.6001 25.9991 24.0022 26.0387 24.3902 25.9616C24.7781 25.8844 25.1345 25.6939 25.4142 25.4142C25.6939 25.1345 25.8844 24.7781 25.9616 24.3902C26.0387 24.0022 25.9991 23.6001 25.8478 23.2346C25.6964 22.8692 25.44 22.5568 25.1111 22.3371C24.7822 22.1173 24.3956 22 24 22C23.4696 22 22.9609 22.2107 22.5858 22.5858C22.2107 22.9609 22 23.4696 22 24ZM22 31C22 31.3956 22.1173 31.7822 22.3371 32.1111C22.5568 32.44 22.8692 32.6964 23.2346 32.8478C23.6001 32.9991 24.0022 33.0387 24.3902 32.9616C24.7781 32.8844 25.1345 32.6939 25.4142 32.4142C25.6939 32.1345 25.8844 31.7781 25.9616 31.3902C26.0387 31.0022 25.9991 30.6001 25.8478 30.2346C25.6964 29.8692 25.44 29.5568 25.1111 29.3371C24.7822 29.1173 24.3956 29 24 29C23.4696 29 22.9609 29.2107 22.5858 29.5858C22.2107 29.9609 22 30.4696 22 31ZM22 17C22 17.3956 22.1173 17.7822 22.3371 18.1111C22.5568 18.44 22.8692 18.6964 23.2346 18.8478C23.6001 18.9991 24.0022 19.0387 24.3902 18.9616C24.7781 18.8844 25.1345 18.6939 25.4142 18.4142C25.6939 18.1345 25.8844 17.7781 25.9616 17.3902C26.0387 17.0022 25.9991 16.6001 25.8478 16.2346C25.6964 15.8692 25.44 15.5568 25.1111 15.3371C24.7822 15.1173 24.3956 15 24 15C23.4696 15 22.9609 15.2107 22.5858 15.5858C22.2107 15.9609 22 16.4696 22 17Z" fill="#0C0839"/>
</g>
</svg>
