<svg width="24" height="24" viewBox="0 0 24 24" fill="none" xmlns="http://www.w3.org/2000/svg">
<g opacity="0.3">
<path d="M17.25 3H6.75C5.49022 3 4.28204 3.51397 3.39124 4.42884C2.50044 5.34372 2 6.58455 2 7.87838V17.1216C2 17.7623 2.12286 18.3966 2.36157 18.9885C2.60028 19.5804 2.95016 20.1182 3.39124 20.5712C4.28204 21.486 5.49022 22 6.75 22H17.25C18.509 21.9973 19.7156 21.4824 20.6058 20.5682C21.4961 19.6539 21.9974 18.4146 22 17.1216V7.87838C21.9974 6.58539 21.4961 5.34613 20.6058 4.43184C19.7156 3.51756 18.509 3.00271 17.25 3ZM13.6 11.5449C13.108 11.833 12.5514 11.9846 11.985 11.9846C11.4186 11.9846 10.862 11.833 10.37 11.5449L3.52 7.50865C3.60857 6.69247 3.98701 5.93848 4.58292 5.39088C5.17883 4.84329 5.95038 4.54054 6.75 4.54054H17.25C18.049 4.54279 18.8194 4.84632 19.4148 5.39349C20.0103 5.94066 20.3893 6.69336 20.48 7.50865L13.6 11.5449Z" fill="black"/>
</g>
</svg>
