<svg width="22" height="22" viewBox="0 0 22 22" fill="none" xmlns="http://www.w3.org/2000/svg">
<path d="M8.03845 13.2275L9.51429 13.8875C10.4585 14.3091 11.5401 14.3091 12.4935 13.8875L13.9693 13.2275C15.2893 12.6408 16.5085 14.2358 15.5918 15.3541L12.4201 19.2316C11.641 20.185 10.3668 20.185 9.57845 19.2316L6.41596 15.3541C5.49012 14.2358 6.70929 12.6408 8.03845 13.2275Z" fill="#954AFC"/>
<path d="M7.85518 10.6975C7.58018 10.8992 7.61685 11.3208 7.92852 11.4767L10.0827 12.5492C10.5869 12.8058 11.4027 12.8058 11.8977 12.5492L14.0519 11.4767C14.3544 11.3208 14.391 10.9083 14.1252 10.6975L11.2744 8.55251C11.1094 8.43334 10.8893 8.43334 10.7243 8.55251L7.85518 10.6975Z" fill="#954AFC"/>
<path d="M16.3903 7.55336L12.5678 2.78669C12.4945 2.69503 12.412 2.61253 12.3295 2.53003C12.0911 2.30086 11.752 2.51169 11.752 2.84169V6.78336C11.752 6.93003 11.8161 7.06753 11.9353 7.15003L15.7395 10.01L15.9045 10.1292C16.0695 10.2484 16.2986 10.2484 16.4361 10.1017C17.0778 9.40503 17.0686 8.39669 16.3903 7.55336Z" fill="#954AFC"/>
<path d="M5.60038 7.63581L9.40454 2.79581C9.47788 2.70415 9.55121 2.62165 9.63371 2.53915C9.87204 2.30998 10.2112 2.51165 10.2112 2.85081V6.85665C10.2112 7.00331 10.147 7.13165 10.0279 7.22331L6.24204 10.1291L6.08621 10.2483C5.92121 10.3675 5.69204 10.3675 5.54538 10.2116C4.92204 9.50582 4.93121 8.49748 5.60038 7.63581Z" fill="#954AFC"/>
</svg>
