<svg width="22" height="17" viewBox="0 0 22 17" fill="none" xmlns="http://www.w3.org/2000/svg">
<path d="M20.53 7.17744C21.0206 7.81913 21.0206 8.68542 20.53 9.32607C18.9848 11.3433 15.2775 15.4967 10.9491 15.4967C6.62082 15.4967 2.91349 11.3433 1.36825 9.32607C1.12957 9.01882 1 8.64083 1 8.25176C1 7.86269 1.12957 7.48469 1.36825 7.17744C2.91349 5.16025 6.62082 1.00684 10.9491 1.00684C15.2775 1.00684 18.9848 5.16025 20.53 7.17744V7.17744Z" stroke="#6B7380" stroke-width="1.9212" stroke-linecap="round" stroke-linejoin="round"/>
<path d="M10.9487 11.3569C12.6635 11.3569 14.0537 9.96676 14.0537 8.25194C14.0537 6.53711 12.6635 5.14697 10.9487 5.14697C9.23389 5.14697 7.84375 6.53711 7.84375 8.25194C7.84375 9.96676 9.23389 11.3569 10.9487 11.3569Z" stroke="#6B7380" stroke-width="1.9212" stroke-linecap="round" stroke-linejoin="round"/>
</svg>
