<svg width="16" height="16" viewBox="0 0 16 16" fill="none" xmlns="http://www.w3.org/2000/svg">
<path d="M2.87869 3.85787C2.60011 4.12985 2.37913 4.45273 2.22836 4.80809C2.0776 5.16344 2 5.54431 2 5.92894C2 6.31358 2.0776 6.69444 2.22836 7.0498C2.37913 7.40515 2.60011 7.72804 2.87869 8.00001L8 13L13.1213 8.00001C13.6839 7.45073 14 6.70574 14 5.92894C14 5.15214 13.6839 4.40715 13.1213 3.85787C12.5587 3.30859 11.7956 3.00001 11 3.00001C10.2043 3.00001 9.44128 3.30859 8.87867 3.85787L8 4.71572L7.12134 3.85787C6.84277 3.58589 6.51205 3.37015 6.14807 3.22295C5.78409 3.07576 5.39398 3 5.00002 3C4.60605 3 4.21594 3.07576 3.85196 3.22295C3.48798 3.37015 3.15726 3.58589 2.87869 3.85787V3.85787Z" stroke="url(#paint0_linear_53_443)" stroke-width="2" stroke-linecap="round" stroke-linejoin="round"/>
<defs>
<linearGradient id="paint0_linear_53_443" x1="2" y1="0.91664" x2="14.1726" y2="1.09314" gradientUnits="userSpaceOnUse">
<stop stop-color="#9945FF"/>
<stop offset="1" stop-color="#20E19F"/>
</linearGradient>
</defs>
</svg>
