<svg width="20" height="20" viewBox="0 0 20 20" fill="none" xmlns="http://www.w3.org/2000/svg">
<path d="M18.5996 5.97507C18.4987 5.58031 18.343 5.20163 18.1371 4.85007C17.9392 4.48436 17.6863 4.15129 17.3871 3.86257C16.9533 3.43024 16.4396 3.08636 15.8746 2.85007C14.7373 2.38331 13.4619 2.38331 12.3246 2.85007C11.7905 3.07612 11.2999 3.39335 10.8746 3.78757L10.8121 3.86257L9.99957 4.67507L9.18707 3.86257L9.12457 3.78757C8.69926 3.39335 8.20861 3.07612 7.67457 2.85007C6.53726 2.38331 5.26187 2.38331 4.12457 2.85007C3.55955 3.08636 3.04585 3.43024 2.61207 3.86257C2.01877 4.43986 1.59878 5.1716 1.39957 5.97507C1.29359 6.3831 1.24313 6.80356 1.24957 7.22507C1.24957 7.62132 1.29957 8.01632 1.39957 8.40007C1.50436 8.78763 1.65545 9.16115 1.84957 9.51257C2.05921 9.87383 2.31559 10.2059 2.61207 10.5001L9.99957 17.8876L17.3871 10.5001C17.6833 10.2088 17.9371 9.87507 18.1371 9.51257C18.5431 8.81895 18.7546 8.02876 18.7496 7.22507C18.7561 6.80355 18.7056 6.38309 18.5996 5.97507ZM17.3496 8.01257C17.1999 8.58372 16.9024 9.10538 16.4871 9.52507L9.97457 16.0251L3.46207 9.52507C3.24985 9.31134 3.06509 9.072 2.91207 8.81257C2.76808 8.55592 2.6548 8.28321 2.57457 8.00007C2.51052 7.71697 2.477 7.42782 2.47457 7.13757C2.47627 6.83903 2.50979 6.54151 2.57457 6.25007C2.65245 5.96612 2.76584 5.69313 2.91207 5.43757C3.06207 5.17507 3.24707 4.93757 3.46207 4.72507C3.78319 4.40825 4.16044 4.15393 4.57457 3.97507C5.40909 3.64123 6.34005 3.64123 7.17457 3.97507C7.58707 4.14632 7.95957 4.39757 8.27457 4.71257L9.97457 6.42507L11.6746 4.71257C11.9894 4.39701 12.3631 4.14643 12.7746 3.97507C13.6091 3.64123 14.5401 3.64123 15.3746 3.97507C15.7883 4.15382 16.1658 4.40882 16.4871 4.72507C16.7046 4.93132 16.8871 5.17132 17.0246 5.43757C17.3141 5.94815 17.4649 6.52562 17.4621 7.11257C17.4791 7.4146 17.4538 7.71752 17.3871 8.01257H17.3496Z" fill="#2892f3"/>
</svg>
