<svg width="22" height="15" viewBox="0 0 22 15" fill="none" xmlns="http://www.w3.org/2000/svg">
<g clip-path="url(#clip0_484_20981)">
<path d="M12.7793 11.3647H14.0571V12.6685H12.7793V11.3647ZM17.1964 11.3647H18.4742V12.6685H17.1964V11.3647ZM16.1245 6.74067V5.4375H14.3535V6.07225L15.0141 6.74129L16.1245 6.74067Z" fill="#111111"/>
<path d="M20.5045 13.7875V11.0384H20.9109L21.2886 10.6574L16.814 6.09193H16.2585V6.88318H14.9569L14.1814 6.09193H12.0327L7.56302 10.6524L7.94069 11.0377H8.53896V13.7869H7.37113C5.62458 12.0821 5.16013 8.21566 5.3233 5.33933L5.35202 5.28072H5.36608C6.12996 5.28072 6.80708 5.65858 7.22874 6.24095L7.23302 6.24719C7.5508 6.68552 7.74208 7.23735 7.74208 7.83406C7.74208 8.24559 7.65163 8.63529 7.48908 8.98384L7.4958 8.96763C7.83685 8.87853 8.15389 8.71231 8.42346 8.48128L8.4198 8.4844C8.70048 8.23512 8.92543 7.92726 9.07946 7.58164C9.23349 7.23602 9.31301 6.86068 9.31263 6.48101C9.31263 5.88554 9.12074 5.33621 8.79685 4.89351L8.80174 4.90037C8.52384 4.50496 8.13082 4.20902 7.67858 4.05465C7.22633 3.90028 6.7379 3.89534 6.28274 4.04053L6.29863 4.03616C6.46058 3.93328 6.64696 3.84224 6.84313 3.77303L6.86269 3.7668C7.1293 3.66632 7.41141 3.61542 7.69563 3.61653C8.35746 3.61653 8.95696 3.88651 9.39513 4.32361L9.39452 4.32298C9.45945 3.97325 9.43994 3.61265 9.33769 3.27234L9.34196 3.28793C9.24063 2.98466 9.07986 2.7056 8.86942 2.46777C8.65899 2.22994 8.40331 2.03831 8.11796 1.90454C7.8326 1.77078 7.52354 1.69768 7.20961 1.68971C6.89567 1.68174 6.58343 1.73906 6.29191 1.85818L6.30719 1.85257C6.15973 1.90443 6.01632 1.96759 5.87819 2.0415L5.89591 2.03277C5.8543 1.83777 5.79264 1.64779 5.71196 1.46598L5.7193 1.48407C5.18152 0.253849 3.9483 -0.327277 2.96258 0.180897C2.69637 0.319751 2.46764 0.523152 2.29647 0.773247L2.2928 0.779482C2.63973 0.814216 2.97392 0.931119 3.26875 1.12088C3.56359 1.31064 3.81093 1.56802 3.99108 1.87252L3.99658 1.8825C3.7679 1.76569 3.52588 1.67835 3.27608 1.62249L3.2553 1.61875C1.73974 1.28641 0.297521 2.1263 0.0390211 3.49868C-0.0300487 3.87516 -0.00717114 4.2632 0.105632 4.62851L0.101354 4.6123C0.44025 4.21974 0.878863 3.93036 1.36878 3.7761C1.85869 3.62184 2.38086 3.60869 2.87763 3.73812L2.85808 3.73375C3.10802 3.78737 3.32924 3.86469 3.53641 3.96633L3.51869 3.95822C3.02288 3.89083 2.51864 3.97587 2.07046 4.20245C1.62228 4.42904 1.25052 4.78688 1.00274 5.23021L0.996021 5.24268C0.737318 5.68735 0.601526 6.19523 0.603077 6.71234C0.603077 7.69003 1.07791 8.55423 1.80574 9.078L1.81491 9.08423C2.1281 9.29879 2.48542 9.43703 2.8593 9.48828L2.87213 9.48952C2.60251 9.0337 2.46067 8.51112 2.46208 7.97872C2.46208 7.43438 2.60691 6.92434 2.85991 6.48724L2.85258 6.50096C3.04053 6.16715 3.29824 5.87968 3.60739 5.65897C3.91654 5.43827 4.26954 5.28975 4.6413 5.22398L4.65658 5.22148C3.79063 9.2451 3.55108 12.0485 4.26547 13.7862H2.18402V14.9585H21.83V13.7862H20.5045V13.7875ZM15.6462 11.102H20.0254V13.7875H15.6462V11.102ZM9.00891 10.5695L12.0339 7.48302L15.0589 10.5695V13.7875H11.7375V11.3657H10.0576V13.7875H9.00524V10.5695H9.00891Z" fill="#111111"/>
</g>
<defs>
<clipPath id="clip0_484_20981">
<rect width="22" height="14.9646" fill="white"/>
</clipPath>
</defs>
</svg>
