<svg width="26" height="26" viewBox="0 0 26 26" fill="none" xmlns="http://www.w3.org/2000/svg">
<path d="M22.5656 8.6776L15.4698 3.00093C14.0831 1.89593 11.9165 1.8851 10.5406 2.9901L3.4448 8.6776C2.42646 9.4901 1.80896 11.1151 2.02563 12.3934L3.39063 20.5618C3.7048 22.3926 5.40563 23.8334 7.25813 23.8334H18.7415C20.5723 23.8334 22.3056 22.3601 22.6198 20.5509L23.9848 12.3826C24.1798 11.1151 23.5623 9.4901 22.5656 8.6776ZM13.8123 19.5001C13.8123 19.9443 13.444 20.3126 12.9998 20.3126C12.5556 20.3126 12.1873 19.9443 12.1873 19.5001V16.2501C12.1873 15.8059 12.5556 15.4376 12.9998 15.4376C13.444 15.4376 13.8123 15.8059 13.8123 16.2501V19.5001Z" fill="#0C0839"/>
</svg>
