<svg width="15" height="19" viewBox="0 0 15 19" fill="none" xmlns="http://www.w3.org/2000/svg">
<path d="M7.14258 19.0001C5.87952 17.9227 4.70877 16.7416 3.64258 15.4691C2.04258 13.5581 0.142579 10.7121 0.142579 8.00009C0.141885 6.61505 0.552087 5.26094 1.32127 4.10912C2.09046 2.9573 3.18405 2.05955 4.46365 1.52949C5.74324 0.999429 7.15133 0.860882 8.5097 1.13138C9.86806 1.40189 11.1157 2.06928 12.0946 3.04909C12.7463 3.69795 13.2629 4.46963 13.6145 5.31947C13.966 6.1693 14.1455 7.08042 14.1426 8.00009C14.1426 10.7121 12.2426 13.5581 10.6426 15.4691C9.57638 16.7416 8.40564 17.9227 7.14258 19.0001ZM7.14258 5.00009C6.34693 5.00009 5.58387 5.31616 5.02126 5.87877C4.45865 6.44138 4.14258 7.20444 4.14258 8.00009C4.14258 8.79574 4.45865 9.5588 5.02126 10.1214C5.58387 10.684 6.34693 11.0001 7.14258 11.0001C7.93823 11.0001 8.70129 10.684 9.2639 10.1214C9.82651 9.5588 10.1426 8.79574 10.1426 8.00009C10.1426 7.20444 9.82651 6.44138 9.2639 5.87877C8.70129 5.31616 7.93823 5.00009 7.14258 5.00009Z" fill="#004AAD"/>
</svg>
