<svg width="16" height="16" viewBox="0 0 16 16" fill="none" xmlns="http://www.w3.org/2000/svg">
<path fill-rule="evenodd" clip-rule="evenodd" d="M4.75844 3.42568C5.61798 2.56614 6.78377 2.08325 7.99935 2.08325C9.21492 2.08325 10.3807 2.56614 11.2403 3.42568C12.0998 4.28522 12.5827 5.45101 12.5827 6.66659C12.5827 8.07803 11.7856 9.61118 10.7345 10.9921C9.74996 12.2857 8.62357 13.3413 7.99935 13.8872C7.37513 13.3413 6.24874 12.2857 5.26415 10.9921C4.21313 9.61118 3.41602 8.07803 3.41602 6.66659C3.41602 5.45101 3.8989 4.28522 4.75844 3.42568ZM7.99935 0.583252C6.38595 0.583252 4.83863 1.22417 3.69778 2.36502C2.55694 3.50587 1.91602 5.05318 1.91602 6.66659C1.91602 8.58381 2.96524 10.4483 4.07054 11.9006C5.19323 13.3756 6.46964 14.5486 7.10853 15.1003C7.1213 15.1113 7.13445 15.1219 7.14793 15.132C7.39341 15.3166 7.69222 15.4164 7.99935 15.4164C8.30648 15.4164 8.60529 15.3166 8.85077 15.132C8.86425 15.1219 8.87739 15.1113 8.89017 15.1003C9.52906 14.5486 10.8055 13.3756 11.9282 11.9006C13.0335 10.4483 14.0827 8.58381 14.0827 6.66659C14.0827 5.05319 13.4418 3.50587 12.3009 2.36502C11.1601 1.22417 9.61275 0.583252 7.99935 0.583252ZM6.75 6.66663C6.75 5.97627 7.30964 5.41663 8 5.41663C8.69036 5.41663 9.25 5.97627 9.25 6.66663C9.25 7.35698 8.69036 7.91663 8 7.91663C7.30964 7.91663 6.75 7.35698 6.75 6.66663ZM8 3.91663C6.48122 3.91663 5.25 5.14784 5.25 6.66663C5.25 8.18541 6.48122 9.41663 8 9.41663C9.51878 9.41663 10.75 8.18541 10.75 6.66663C10.75 5.14784 9.51878 3.91663 8 3.91663Z" fill="url(#paint0_linear_918_3750)"/>
<defs>
<linearGradient id="paint0_linear_918_3750" x1="1.91602" y1="-2.50703" x2="14.2591" y2="-2.3847" gradientUnits="userSpaceOnUse">
<stop stop-color="#9945FF"/>
<stop offset="1" stop-color="#20E19F"/>
</linearGradient>
</defs>
</svg>
