              <svg width="24" height="24" viewBox="0 0 24 24" fill="none" xmlns="http://www.w3.org/2000/svg">
                <path
                  d="M20.025 15.7188H6.75L6.39 13.8438H20.085C20.5167 13.8449 20.9354 13.6959 21.2693 13.4223C21.6032 13.1486 21.8314 12.7673 21.915 12.3438L23.175 6.34375C23.233 6.07086 23.2294 5.78846 23.1645 5.51713C23.0995 5.24581 22.9748 4.9924 22.7995 4.77539C22.6241 4.55838 22.4026 4.38323 22.151 4.26271C21.8993 4.14219 21.624 4.07934 21.345 4.07875H4.5L4.17 2.21875H0.75V4.09375H2.625L4.875 15.8538C4.22152 16.0082 3.63873 16.3774 3.21992 16.9022C2.80112 17.4271 2.57051 18.0773 2.565 18.7488C2.60013 19.5751 2.96036 20.354 3.56723 20.9159C4.17409 21.4779 4.97842 21.7772 5.805 21.7488C6.62499 21.7691 7.41999 21.4657 8.01794 20.9042C8.6159 20.3427 8.9687 19.5684 9 18.7488C8.99723 18.3517 8.91565 17.9591 8.76 17.5938H16.995C16.8393 17.9591 16.7578 18.3517 16.755 18.7488C16.7901 19.5751 17.1504 20.354 17.7572 20.9159C18.3641 21.4779 19.1684 21.7772 19.995 21.7488C20.7906 21.7488 21.5537 21.4327 22.1163 20.8701C22.6789 20.3075 22.995 19.5444 22.995 18.7488C22.995 17.9531 22.6789 17.19 22.1163 16.6274C21.5537 16.0648 20.7906 15.7488 19.995 15.7488L20.025 15.7188ZM21.345 5.99875L20.085 11.9988H6L4.89 5.99875H21.345ZM5.805 19.9038C5.48152 19.9128 5.1667 19.7985 4.92437 19.584C4.68204 19.3695 4.53033 19.0709 4.5 18.7488C4.53054 18.4157 4.69076 18.1079 4.9461 17.8919C5.20144 17.6758 5.53145 17.5687 5.865 17.5938C6.19696 17.5689 6.52527 17.6764 6.77821 17.8928C7.03116 18.1092 7.18819 18.4169 7.215 18.7488C7.20207 18.9186 7.15483 19.0841 7.07612 19.2352C6.99741 19.3863 6.88888 19.5199 6.75708 19.6279C6.62528 19.7358 6.47295 19.816 6.30931 19.8634C6.14566 19.9108 5.9741 19.9245 5.805 19.9038ZM20.025 19.9038C19.6915 19.9288 19.3614 19.8217 19.1061 19.6056C18.8508 19.3896 18.6905 19.0818 18.66 18.7488C18.7181 18.4311 18.8857 18.1438 19.1338 17.937C19.3818 17.7302 19.6946 17.6169 20.0175 17.6169C20.3405 17.6169 20.6532 17.7302 20.9012 17.937C21.1493 18.1438 21.3169 18.4311 21.375 18.7488C21.3444 19.0791 21.1864 19.3845 20.9343 19.6001C20.6822 19.8158 20.3561 19.9247 20.025 19.9038Z"
                  fill="#2892F3"
                />
              </svg>