<svg width="22" height="21" viewBox="0 0 22 21" fill="none" xmlns="http://www.w3.org/2000/svg">
<path d="M20.4488 15.5703H17.7829V13.0703H16.45V15.5703H13.7842V16.8203H16.45V19.3203H17.7829V16.8203H20.4488V15.5703Z" fill="black"/>
<path d="M10.7187 19.3203L3.78755 15.4453C3.38768 15.1953 3.12109 14.8203 3.12109 14.3828V6.75781C3.12109 6.32031 3.38768 5.88281 3.78755 5.69531L10.4522 2.00781C10.6521 1.88281 10.852 1.82031 11.1186 1.82031C11.3852 1.82031 11.5851 1.88281 11.7851 2.00781L18.4497 5.69531C18.8496 5.94531 19.1161 6.32031 19.1161 6.75781V10.5703H17.7832V6.75781L11.1186 3.07031L4.45401 6.75781V14.3828L11.4518 18.2578L10.7187 19.3203Z" fill="black"/>
</svg>
