              <svg width="24" height="25" viewBox="0 0 24 25" fill="none" xmlns="http://www.w3.org/2000/svg">
                <g clipPath="url(#clip0_244_1640)">
                  <path
                    d="M5.5 7.54492C5.5 6.88188 5.76339 6.246 6.23223 5.77715C6.70107 5.30831 7.33696 5.04492 8 5.04492C8.66304 5.04492 9.29893 5.30831 9.76777 5.77715C10.2366 6.246 10.5 6.88188 10.5 7.54492C10.5 8.20796 10.2366 8.84385 9.76777 9.31269C9.29893 9.78153 8.66304 10.0449 8 10.0449C7.33696 10.0449 6.70107 9.78153 6.23223 9.31269C5.76339 8.84385 5.5 8.20796 5.5 7.54492ZM8 3.54492C6.93913 3.54492 5.92172 3.96635 5.17157 4.71649C4.42143 5.46664 4 6.48406 4 7.54492C4 8.60579 4.42143 9.6232 5.17157 10.3733C5.92172 11.1235 6.93913 11.5449 8 11.5449C9.06087 11.5449 10.0783 11.1235 10.8284 10.3733C11.5786 9.6232 12 8.60579 12 7.54492C12 6.48406 11.5786 5.46664 10.8284 4.71649C10.0783 3.96635 9.06087 3.54492 8 3.54492ZM15.5 8.54492C15.5 8.1471 15.658 7.76557 15.9393 7.48426C16.2206 7.20296 16.6022 7.04492 17 7.04492C17.3978 7.04492 17.7794 7.20296 18.0607 7.48426C18.342 7.76557 18.5 8.1471 18.5 8.54492C18.5 8.94275 18.342 9.32428 18.0607 9.60558C17.7794 9.88689 17.3978 10.0449 17 10.0449C16.6022 10.0449 16.2206 9.88689 15.9393 9.60558C15.658 9.32428 15.5 8.94275 15.5 8.54492ZM17 5.54492C16.2044 5.54492 15.4413 5.86099 14.8787 6.4236C14.3161 6.98621 14 7.74927 14 8.54492C14 9.34057 14.3161 10.1036 14.8787 10.6662C15.4413 11.2289 16.2044 11.5449 17 11.5449C17.7956 11.5449 18.5587 11.2289 19.1213 10.6662C19.6839 10.1036 20 9.34057 20 8.54492C20 7.74927 19.6839 6.98621 19.1213 6.4236C18.5587 5.86099 17.7956 5.54492 17 5.54492ZM11.75 13.5449C12.051 13.5449 12.338 13.6049 12.601 13.7109C12.2923 13.8304 12.0103 14.0098 11.7712 14.2387C11.5321 14.4677 11.3407 14.7417 11.208 15.0449H4.25C4.05109 15.0449 3.86032 15.1239 3.71967 15.2646C3.57902 15.4052 3.5 15.596 3.5 15.7949V16.0519L3.507 16.1319C3.514 16.2059 3.53 16.3199 3.562 16.4609C3.628 16.7419 3.76 17.1169 4.021 17.4899C4.514 18.1949 5.578 19.0449 8 19.0449C9.407 19.0449 10.355 18.7579 11 18.3799V20.0409C10.209 20.3529 9.223 20.5449 8 20.5449C5.172 20.5449 3.61 19.5199 2.792 18.3499C2.36404 17.7356 2.09658 17.024 2.014 16.2799C2.00699 16.2114 2.00232 16.1427 2 16.0739V15.7959C1.99987 15.5004 2.05797 15.2077 2.17098 14.9346C2.284 14.6615 2.44971 14.4133 2.65866 14.2043C2.8676 13.9952 3.11568 13.8294 3.38873 13.7163C3.66178 13.6032 3.95444 13.5449 4.25 13.5449H11.75ZM12 16.0449C12 15.6471 12.158 15.2656 12.4393 14.9843C12.7206 14.703 13.1022 14.5449 13.5 14.5449H21.5C21.8978 14.5449 22.2794 14.703 22.5607 14.9843C22.842 15.2656 23 15.6471 23 16.0449V20.0449C23 20.4427 22.842 20.8243 22.5607 21.1056C22.2794 21.3869 21.8978 21.5449 21.5 21.5449H13.5C13.1022 21.5449 12.7206 21.3869 12.4393 21.1056C12.158 20.8243 12 20.4427 12 20.0449V16.0449ZM13 16.5449V17.5449C13.5304 17.5449 14.0391 17.3342 14.4142 16.9591C14.7893 16.5841 15 16.0754 15 15.5449H14C14 15.8101 13.8946 16.0645 13.7071 16.252C13.5196 16.4396 13.2652 16.5449 13 16.5449ZM22 17.5449V16.5449C21.7348 16.5449 21.4804 16.4396 21.2929 16.252C21.1054 16.0645 21 15.8101 21 15.5449H20C20 16.0754 20.2107 16.5841 20.5858 16.9591C20.9609 17.3342 21.4696 17.5449 22 17.5449ZM20 20.5449H21C21 20.2797 21.1054 20.0254 21.2929 19.8378C21.4804 19.6503 21.7348 19.5449 22 19.5449V18.5449C21.4696 18.5449 20.9609 18.7556 20.5858 19.1307C20.2107 19.5058 20 20.0145 20 20.5449ZM13 18.5449V19.5449C13.2652 19.5449 13.5196 19.6503 13.7071 19.8378C13.8946 20.0254 14 20.2797 14 20.5449H15C15 20.0145 14.7893 19.5058 14.4142 19.1307C14.0391 18.7556 13.5304 18.5449 13 18.5449ZM17.5 19.7949C17.9641 19.7949 18.4092 19.6105 18.7374 19.2824C19.0656 18.9542 19.25 18.5091 19.25 18.0449C19.25 17.5808 19.0656 17.1357 18.7374 16.8075C18.4092 16.4793 17.9641 16.2949 17.5 16.2949C17.0359 16.2949 16.5908 16.4793 16.2626 16.8075C15.9344 17.1357 15.75 17.5808 15.75 18.0449C15.75 18.5091 15.9344 18.9542 16.2626 19.2824C16.5908 19.6105 17.0359 19.7949 17.5 19.7949Z"
                    fill="#2892F3"
                  />
                </g>
                <defs>
                  <clipPath id="clip0_244_1640">
                    <rect width="24" height="24" fill="white" transform="translate(0 0.544922)" />
                  </clipPath>
                </defs>
              </svg>