              <svg width="24" height="24" viewBox="0 0 24 24" fill="none" xmlns="http://www.w3.org/2000/svg">
                <g clipPath="url(#clip0_244_1609)">
                  <path
                    d="M13.2537 2H4.08033C3.70549 2 3.346 2.1489 3.08095 2.41396C2.8159 2.67901 2.66699 3.03849 2.66699 3.41333V22H14.667V3.41333C14.667 3.03849 14.5181 2.67901 14.253 2.41396C13.988 2.1489 13.6285 2 13.2537 2ZM13.3337 20.6667H11.3337V18.6667H6.00033V20.6667H4.00033V3.41333C4.00033 3.40283 4.00239 3.39242 4.00642 3.38272C4.01044 3.37301 4.01633 3.36419 4.02376 3.35676C4.03119 3.34934 4.04 3.34344 4.04971 3.33942C4.05942 3.3354 4.06982 3.33333 4.08033 3.33333H13.2537C13.2642 3.33333 13.2746 3.3354 13.2843 3.33942C13.294 3.34344 13.3028 3.34934 13.3102 3.35676C13.3177 3.36419 13.3235 3.37301 13.3276 3.38272C13.3316 3.39242 13.3337 3.40283 13.3337 3.41333V20.6667Z"
                    fill="#2892F3"
                  />
                  <path d="M5.33398 5.33398H6.66732V6.66732H5.33398V5.33398Z" fill="#2892F3" />
                  <path d="M8 5.33398H9.33333V6.66732H8V5.33398Z" fill="#2892F3" />
                  <path d="M10.666 5.33398H11.9993V6.66732H10.666V5.33398Z" fill="#2892F3" />
                  <path d="M5.33398 8.66602H6.66732V9.99935H5.33398V8.66602Z" fill="#2892F3" />
                  <path d="M8 8.66602H9.33333V9.99935H8V8.66602Z" fill="#2892F3" />
                  <path d="M10.666 8.66602H11.9993V9.99935H10.666V8.66602Z" fill="#2892F3" />
                  <path d="M5.33301 12H6.66634V13.3333H5.33301V12Z" fill="#2892F3" />
                  <path d="M8 12H9.33333V13.3333H8V12Z" fill="#2892F3" />
                  <path d="M10.667 12H12.0003V13.3333H10.667V12Z" fill="#2892F3" />
                  <path d="M5.33398 15.334H6.66732V16.6673H5.33398V15.334Z" fill="#2892F3" />
                  <path d="M8 15.334H9.33333V16.6673H8V15.334Z" fill="#2892F3" />
                  <path d="M10.666 15.334H11.9993V16.6673H10.666V15.334Z" fill="#2892F3" />
                  <path d="M15.334 8.66602H16.6673V9.99935H15.334V8.66602Z" fill="#2892F3" />
                  <path d="M18 8.66602H19.3333V9.99935H18V8.66602Z" fill="#2892F3" />
                  <path d="M15.333 12H16.6663V13.3333H15.333V12Z" fill="#2892F3" />
                  <path d="M18 12H19.3333V13.3333H18V12Z" fill="#2892F3" />
                  <path d="M15.334 15.334H16.6673V16.6673H15.334V15.334Z" fill="#2892F3" />
                  <path d="M18 15.334H19.3333V16.6673H18V15.334Z" fill="#2892F3" />
                  <path
                    d="M20.6663 8.95341V20.6667H15.333V22.0001H21.9997V8.58008C21.5748 8.76617 21.126 8.89183 20.6663 8.95341Z"
                    fill="#2892F3"
                  />
                  <path
                    d="M19.9993 7.33268C21.8403 7.33268 23.3327 5.8403 23.3327 3.99935C23.3327 2.1584 21.8403 0.666016 19.9993 0.666016C18.1584 0.666016 16.666 2.1584 16.666 3.99935C16.666 5.8403 18.1584 7.33268 19.9993 7.33268Z"
                    fill="#2892F3"
                  />
                </g>
                <defs>
                  <clipPath id="clip0_244_1609">
                    <rect width="24" height="24" fill="white" />
                  </clipPath>
                </defs>
              </svg>