<svg width="24" height="25" viewBox="0 0 24 25" fill="none" xmlns="http://www.w3.org/2000/svg">
                <path d="M16 12.5H18V16.5H16V12.5Z" fill="#2892F3" />
                <path
                  d="M20 7.5V5.5C20 4.397 19.103 3.5 18 3.5H5C3.346 3.5 2 4.846 2 6.5V18.5C2 20.701 3.794 21.5 5 21.5H20C21.103 21.5 22 20.603 22 19.5V9.5C22 8.397 21.103 7.5 20 7.5ZM5 5.5H18V7.5H5C4.74252 7.48848 4.49941 7.37809 4.32128 7.19182C4.14315 7.00554 4.04373 6.75774 4.04373 6.5C4.04373 6.24226 4.14315 5.99446 4.32128 5.80818C4.49941 5.62191 4.74252 5.51152 5 5.5ZM20 19.5H5.012C4.55 19.488 4 19.305 4 18.5V9.315C4.314 9.428 4.647 9.5 5 9.5H20V19.5Z"
                  fill="#2892F3"
                />
              </svg>