<svg width="24" height="24" viewBox="0 0 24 24" fill="none" xmlns="http://www.w3.org/2000/svg">
                <path d="M12 8V13H17V11H14V8H12Z" fill="#2892F3" />
                <path
                  d="M21.292 8.49664C20.8409 7.42668 20.1861 6.45465 19.364 5.63464C18.1196 4.3902 16.5377 3.53774 14.814 3.18264C13.6176 2.93912 12.3844 2.93912 11.188 3.18264C9.46267 3.53547 7.87947 4.38863 6.636 5.63564C5.81589 6.45652 5.16133 7.42749 4.708 8.49564C4.23911 9.60425 3.99832 10.7959 4 11.9996L4.001 12.0246H2L5 15.9996L8 12.0246H6.001L6 11.9996C5.99712 10.605 6.41346 9.24171 7.195 8.08664C7.69912 7.34132 8.34095 6.69915 9.086 6.19464C9.84394 5.68404 10.6941 5.32603 11.589 5.14064C13.4075 4.76674 15.3001 5.13027 16.8507 6.15131C18.4013 7.17235 19.483 8.76733 19.858 10.5856C20.0466 11.5175 20.0466 12.4778 19.858 13.4096C19.675 14.3053 19.3168 15.1559 18.804 15.9126C18.554 16.2836 18.267 16.6326 17.95 16.9486C17.3112 17.5867 16.5558 18.0962 15.725 18.4496C15.3018 18.6285 14.862 18.7652 14.412 18.8576C13.4804 19.0461 12.5206 19.0461 11.589 18.8576C10.6943 18.6742 9.84447 18.3164 9.088 17.8046C8.71595 17.5532 8.36871 17.2669 8.051 16.9496L6.637 18.3636C7.47212 19.1999 8.46403 19.8632 9.5559 20.3155C10.6478 20.7679 11.8181 21.0003 13 20.9996C14.2031 20.9991 15.3939 20.7588 16.503 20.2926C18.1106 19.6125 19.486 18.4799 20.462 17.0326C21.4665 15.5465 22.0022 13.7934 22 11.9996C22.0025 10.7962 21.7617 9.60465 21.292 8.49664Z"
                  fill="#2892F3"
                />
              </svg>