<svg width="30" height="20" viewBox="0 0 30 20" fill="none" xmlns="http://www.w3.org/2000/svg">
<path d="M27.8047 0.550781H2.21003C1.72516 0.550781 1.26015 0.752284 0.917301 1.11096C0.574448 1.46964 0.381836 1.95611 0.381836 2.46335V17.7639C0.381836 18.2712 0.574448 18.7576 0.917301 19.1163C1.26015 19.475 1.72516 19.6765 2.21003 19.6765H27.8047C28.2896 19.6765 28.7546 19.475 29.0974 19.1163C29.4403 18.7576 29.6329 18.2712 29.6329 17.7639V2.46335C29.6329 1.95611 29.4403 1.46964 29.0974 1.11096C28.7546 0.752284 28.2896 0.550781 27.8047 0.550781ZM27.8047 6.28849C26.869 6.20913 25.9924 5.77799 25.3371 5.0748C24.6817 4.37161 24.2919 3.44394 24.2397 2.46335H27.8047V6.28849ZM27.8047 7.83767V12.4565C26.4885 12.5392 25.2475 13.126 24.3185 14.1049C23.3895 15.0839 22.8376 16.3864 22.768 17.7639H7.22841C7.16151 16.3878 6.61313 15.0855 5.68771 14.105C4.76229 13.1245 3.52448 12.5344 2.21003 12.447V7.81855C3.53372 7.73482 4.78088 7.14126 5.71095 6.15237C6.64103 5.16348 7.18812 3.84931 7.2467 2.46335H22.7863C22.8445 3.84622 23.389 5.15784 24.3153 6.14628C25.2416 7.13472 26.4843 7.73028 27.8047 7.81855V7.83767ZM5.775 2.46335C5.72285 3.44394 5.33305 4.37161 4.67769 5.0748C4.02233 5.77799 3.14574 6.20913 2.21003 6.28849V2.46335H5.775ZM2.21003 13.9961C3.13692 14.0739 4.00642 14.4969 4.66058 15.1882C5.31473 15.8796 5.71015 16.7935 5.775 17.7639H2.21003V13.9961ZM24.2397 17.7639C24.3046 16.7935 24.7 15.8796 25.3542 15.1882C26.0083 14.4969 26.8778 14.0739 27.8047 13.9961V17.7639H24.2397Z" fill="#ABABAB"/>
</svg>
