<svg width="40" height="40" viewBox="0 0 40 40" fill="none" xmlns="http://www.w3.org/2000/svg">
<path d="M8.33398 13.3334C5.56732 13.3334 3.33398 15.5667 3.33398 18.3334V31.6667C3.33398 34.4334 5.56732 36.6667 8.33398 36.6667H10.834C12.6673 36.6667 14.1673 35.1667 14.1673 33.3334V16.6667C14.1673 14.8334 12.6673 13.3334 10.834 13.3334H8.33398ZM10.0007 28.3334C10.0007 29.0167 9.43398 29.5834 8.75065 29.5834C8.06732 29.5834 7.50065 29.0167 7.50065 28.3334V21.6667C7.50065 20.9834 8.06732 20.4167 8.75065 20.4167C9.43398 20.4167 10.0007 20.9834 10.0007 21.6667V28.3334Z" fill="#0C0839"/>
<path d="M31.666 3.33337H21.666C18.8993 3.33337 16.666 5.56671 16.666 8.33337V31.6667C16.666 34.4334 18.8993 36.6667 21.666 36.6667H22.4993C22.966 36.6667 23.3327 36.3 23.3327 35.8334V30C23.3327 29.0834 24.0827 28.3334 24.9993 28.3334H28.3327C29.2494 28.3334 29.9994 29.0834 29.9994 30V35.8334C29.9994 36.3 30.366 36.6667 30.8327 36.6667H31.666C34.4327 36.6667 36.666 34.4334 36.666 31.6667V8.33337C36.666 5.56671 34.4327 3.33337 31.666 3.33337ZM24.5827 21.6667C24.5827 22.35 24.016 22.9167 23.3327 22.9167C22.6493 22.9167 22.0827 22.35 22.0827 21.6667V13.3334C22.0827 12.65 22.6493 12.0834 23.3327 12.0834C24.016 12.0834 24.5827 12.65 24.5827 13.3334V21.6667ZM31.2494 21.6667C31.2494 22.35 30.6827 22.9167 29.9994 22.9167C29.316 22.9167 28.7494 22.35 28.7494 21.6667V13.3334C28.7494 12.65 29.316 12.0834 29.9994 12.0834C30.6827 12.0834 31.2494 12.65 31.2494 13.3334V21.6667Z" fill="#954AFC"/>
</svg>
