<svg width="12" height="13" viewBox="0 0 12 13" fill="none" xmlns="http://www.w3.org/2000/svg">
<path d="M9.33333 5.44169V0H2.66667V2.72084H0V12.2438H5.33333V9.52295H6.66667V12.2438H12V5.44169H9.33333ZM2.66667 10.8834H1.33333V9.52295H2.66667V10.8834ZM2.66667 8.16253H1.33333V6.80211H2.66667V8.16253ZM2.66667 5.44169H1.33333V4.08126H2.66667V5.44169ZM5.33333 8.16253H4V6.80211H5.33333V8.16253ZM5.33333 5.44169H4V4.08126H5.33333V5.44169ZM5.33333 2.72084H4V1.36042H5.33333V2.72084ZM8 8.16253H6.66667V6.80211H8V8.16253ZM8 5.44169H6.66667V4.08126H8V5.44169ZM8 2.72084H6.66667V1.36042H8V2.72084ZM10.6667 10.8834H9.33333V9.52295H10.6667V10.8834ZM10.6667 8.16253H9.33333V6.80211H10.6667V8.16253Z" fill="#111111"/>
</svg>
