<svg width="27" height="27" viewBox="0 0 27 27" fill="none" xmlns="http://www.w3.org/2000/svg">
<path d="M23.5365 15.2711C23.357 15.0667 23.258 14.8041 23.258 14.5321C23.258 14.2601 23.357 13.9974 23.5365 13.7931L24.9696 12.1808C25.1276 12.0046 25.2256 11.783 25.2498 11.5476C25.2739 11.3123 25.2229 11.0754 25.104 10.8708L22.8647 6.99679C22.747 6.79247 22.5678 6.63052 22.3527 6.53402C22.1376 6.43751 21.8975 6.41138 21.6666 6.45935L19.5617 6.88482C19.2938 6.94017 19.015 6.89556 18.7778 6.75942C18.5406 6.62328 18.3614 6.40503 18.2741 6.14585L17.5911 4.09687C17.516 3.87449 17.3729 3.68133 17.182 3.54471C16.9911 3.40808 16.7621 3.3349 16.5274 3.33551H12.0488C11.8046 3.32276 11.563 3.39029 11.3608 3.52777C11.1587 3.66525 11.007 3.86513 10.9291 4.09687L10.3021 6.14585C10.2148 6.40503 10.0356 6.62328 9.7984 6.75942C9.56119 6.89556 9.28235 6.94017 9.01451 6.88482L6.85357 6.45935C6.63474 6.42843 6.41164 6.46296 6.2124 6.5586C6.01315 6.65424 5.84667 6.8067 5.73392 6.99679L3.4946 10.8708C3.37274 11.0731 3.31794 11.3087 3.33805 11.544C3.35816 11.7793 3.45215 12.0022 3.60657 12.1808L5.02853 13.7931C5.20803 13.9974 5.30703 14.2601 5.30703 14.5321C5.30703 14.8041 5.20803 15.0667 5.02853 15.2711L3.60657 16.8834C3.45215 17.062 3.35816 17.2849 3.33805 17.5202C3.31794 17.7555 3.37274 17.9911 3.4946 18.1934L5.73392 22.0674C5.85159 22.2717 6.03076 22.4336 6.24588 22.5302C6.46101 22.6267 6.7011 22.6528 6.93195 22.6048L9.03691 22.1793C9.30475 22.124 9.58358 22.1686 9.82079 22.3047C10.058 22.4409 10.2372 22.6591 10.3245 22.9183L11.0075 24.9673C11.0854 25.199 11.237 25.3989 11.4392 25.5364C11.6414 25.6739 11.883 25.7414 12.1272 25.7287H16.6058C16.8405 25.7293 17.0695 25.6561 17.2604 25.5195C17.4512 25.3828 17.5944 25.1897 17.6695 24.9673L18.3525 22.9183C18.4398 22.6591 18.619 22.4409 18.8562 22.3047C19.0934 22.1686 19.3722 22.124 19.6401 22.1793L21.745 22.6048C21.9759 22.6528 22.216 22.6267 22.4311 22.5302C22.6462 22.4336 22.8254 22.2717 22.9431 22.0674L25.1824 18.1934C25.3013 17.9888 25.3523 17.7519 25.3281 17.5165C25.304 17.2812 25.2059 17.0595 25.048 16.8834L23.5365 15.2711ZM21.8682 16.7714L22.7639 17.7791L21.3307 20.2647L20.0096 19.996C19.2032 19.8312 18.3643 19.9682 17.6522 20.381C16.9401 20.7938 16.4044 21.4536 16.1467 22.2353L15.7213 23.4893H12.8549L12.4519 22.2129C12.1942 21.4312 11.6585 20.7714 10.9464 20.3586C10.2343 19.9458 9.39544 19.8088 8.58904 19.9736L7.26785 20.2423L5.81229 17.7679L6.70802 16.7602C7.25884 16.1444 7.56336 15.3471 7.56336 14.5209C7.56336 13.6947 7.25884 12.8974 6.70802 12.2816L5.81229 11.2739L7.24545 8.81063L8.56665 9.07935C9.37305 9.24419 10.2119 9.10721 10.924 8.69441C11.6361 8.28161 12.1718 7.62173 12.4295 6.84004L12.8549 5.57482H15.7213L16.1467 6.85123C16.4044 7.63293 16.9401 8.29281 17.6522 8.70561C18.3643 9.11841 19.2032 9.25539 20.0096 9.09055L21.3307 8.82183L22.7639 11.3075L21.8682 12.3152C21.3235 12.9296 21.0228 13.7222 21.0228 14.5433C21.0228 15.3643 21.3235 16.157 21.8682 16.7714V16.7714ZM14.2881 10.0535C13.4023 10.0535 12.5364 10.3161 11.7999 10.8082C11.0634 11.3004 10.4894 11.9998 10.1504 12.8182C9.81141 13.6365 9.72272 14.5371 9.89553 15.4058C10.0683 16.2746 10.4949 17.0726 11.1212 17.699C11.7476 18.3253 12.5456 18.7519 13.4144 18.9247C14.2831 19.0975 15.1836 19.0088 16.002 18.6698C16.8204 18.3308 17.5198 17.7568 18.0119 17.0203C18.5041 16.2838 18.7667 15.4179 18.7667 14.5321C18.7667 13.3443 18.2949 12.2051 17.455 11.3652C16.6151 10.5253 15.4759 10.0535 14.2881 10.0535V10.0535ZM14.2881 16.7714C13.8452 16.7714 13.4123 16.6401 13.044 16.394C12.6757 16.1479 12.3887 15.7982 12.2192 15.389C12.0498 14.9799 12.0054 14.5296 12.0918 14.0952C12.1782 13.6608 12.3915 13.2618 12.7047 12.9486C13.0178 12.6355 13.4168 12.4222 13.8512 12.3358C14.2856 12.2494 14.7359 12.2937 15.145 12.4632C15.5542 12.6327 15.904 12.9197 16.15 13.288C16.3961 13.6562 16.5274 14.0892 16.5274 14.5321C16.5274 15.126 16.2915 15.6956 15.8715 16.1155C15.4516 16.5355 14.882 16.7714 14.2881 16.7714Z" fill="black"/>
</svg>
