<svg width="22" height="22" viewBox="0 0 22 22" fill="none" xmlns="http://www.w3.org/2000/svg">
<g clip-path="url(#clip0_918_4994)">
<g clip-path="url(#clip1_918_4994)">
<path d="M19.0172 14.4412H6.60848L6.27197 12.7133H19.0733C19.4768 12.7143 19.8682 12.577 20.1803 12.3248C20.4925 12.0726 20.7058 11.7212 20.7839 11.3309L21.9617 5.80147C22.0159 5.54999 22.0125 5.28973 21.9519 5.03969C21.8911 4.78965 21.7745 4.55611 21.6107 4.35612C21.4467 4.15613 21.2397 3.99472 21.0045 3.88365C20.7692 3.77258 20.5119 3.71466 20.2511 3.71412H4.5053L4.19683 2H1V3.72794H2.75265L4.85583 14.5656C4.24499 14.7079 3.70023 15.0482 3.30875 15.5318C2.91728 16.0155 2.70172 16.6148 2.69656 17.2336C2.7294 17.9951 3.06613 18.7129 3.6334 19.2307C4.20066 19.7486 4.9525 20.0245 5.72514 19.9983C6.49163 20.017 7.23475 19.7374 7.79368 19.2199C8.35262 18.7025 8.6824 17.9889 8.71166 17.2336C8.70907 16.8676 8.63281 16.5058 8.48732 16.1692H16.185C16.0394 16.5058 15.9632 16.8676 15.9606 17.2336C15.9934 17.9951 16.3302 18.7129 16.8974 19.2307C17.4647 19.7486 18.2165 20.0245 18.9892 19.9983C19.7329 19.9983 20.4462 19.707 20.9721 19.1885C21.498 18.67 21.7934 17.9668 21.7934 17.2336C21.7934 16.5003 21.498 15.797 20.9721 15.2786C20.4462 14.7601 19.7329 14.4689 18.9892 14.4689L19.0172 14.4412ZM20.2511 5.48353L19.0733 11.013H5.90742L4.86985 5.48353H20.2511ZM5.72514 18.298C5.42277 18.3063 5.12849 18.201 4.90198 18.0033C4.67546 17.8056 4.53365 17.5304 4.5053 17.2336C4.53385 16.9266 4.68361 16.643 4.92229 16.4439C5.16097 16.2447 5.46944 16.146 5.78123 16.1692C6.09153 16.1462 6.39841 16.2453 6.63485 16.4447C6.87129 16.6441 7.01807 16.9277 7.04314 17.2336C7.03105 17.3901 6.98689 17.5426 6.91332 17.6818C6.83974 17.8211 6.7383 17.9442 6.6151 18.0437C6.4919 18.1432 6.34951 18.2171 6.19654 18.2608C6.04357 18.3044 5.88321 18.3171 5.72514 18.298ZM19.0172 18.298C18.7055 18.321 18.3969 18.2223 18.1583 18.0232C17.9197 17.8241 17.7698 17.5405 17.7413 17.2336C17.7956 16.9408 17.9523 16.676 18.1842 16.4855C18.416 16.2949 18.7084 16.1905 19.0102 16.1905C19.3121 16.1905 19.6044 16.2949 19.8363 16.4855C20.0682 16.676 20.2248 16.9408 20.2791 17.2336C20.2505 17.538 20.1028 17.8194 19.8672 18.0181C19.6315 18.2169 19.3267 18.3173 19.0172 18.298Z" fill="url(#paint0_linear_918_4994)"/>
</g>
</g>
<defs>
<linearGradient id="paint0_linear_918_4994" x1="1" y1="-1.75005" x2="22.3024" y2="-1.44974" gradientUnits="userSpaceOnUse">
<stop stop-color="#9945FF"/>
<stop offset="1" stop-color="#20E19F"/>
</linearGradient>
<clipPath id="clip0_918_4994">
<rect width="22" height="22" fill="white"/>
</clipPath>
<clipPath id="clip1_918_4994">
<rect width="22" height="22" fill="white"/>
</clipPath>
</defs>
</svg>
