<svg width="22" height="22" viewBox="0 0 22 22" fill="none" xmlns="http://www.w3.org/2000/svg">
<g clip-path="url(#clip0_1159_3781)">
<path d="M21.6876 18.3747L21.6876 18.3747C22.1228 18.6768 22.2307 19.2745 21.9285 19.7098C21.1195 20.8754 19.7407 21.5154 18.3088 21.6448C16.9059 21.7715 15.4369 21.4094 14.3802 20.5538C13.4639 21.2956 12.2349 21.6677 11.0082 21.6699C9.78103 21.6722 8.54643 21.3043 7.61979 20.5538C6.56281 21.4097 5.09419 21.7722 3.69141 21.6457C2.25975 21.5166 0.88114 20.8764 0.0713508 19.7098C-0.230806 19.2745 -0.122869 18.6768 0.312393 18.3747C0.747566 18.0726 1.34539 18.1804 1.64755 18.6158C2.16701 19.3641 3.19408 19.7498 4.23982 19.7497C5.28557 19.7496 6.3125 19.3637 6.83167 18.6158C6.91998 18.4885 7.0378 18.3845 7.17505 18.3127C7.31229 18.2409 7.46488 18.2034 7.61978 18.2034C7.77467 18.2034 7.92726 18.2409 8.06451 18.3127C8.20176 18.3845 8.31958 18.4885 8.40791 18.6157C8.92737 19.3641 9.95445 19.7498 11.0002 19.7497C12.046 19.7496 13.0729 19.3636 13.5921 18.6157C13.5921 18.6157 13.5921 18.6157 13.5921 18.6157L13.6742 18.6727C13.7533 18.5587 13.8589 18.4656 13.9818 18.4013C14.1048 18.3369 14.2415 18.3033 14.3802 18.3033C14.519 18.3034 14.6557 18.337 14.7786 18.4013L21.6876 18.3747ZM21.6876 18.3747C21.2523 18.0726 20.6545 18.1805 20.3524 18.6158M21.6876 18.3747L20.3524 18.6158M20.3524 18.6158C19.8333 19.3636 18.8063 19.7496 17.7606 19.7497M20.3524 18.6158L17.7606 19.7497M17.7606 19.7497C16.7148 19.7498 15.6878 19.3641 15.1683 18.6158L17.7606 19.7497ZM4.21097 13.6772C4.74082 13.6772 5.17034 13.2477 5.17034 12.7179V11.5289H12.7046V12.7179C12.7046 13.2477 13.1341 13.6772 13.664 13.6772C14.1939 13.6772 14.6234 13.2477 14.6234 12.7179V3.35142C14.6234 2.7433 15.1183 2.24839 15.7265 2.24839C16.3347 2.24839 16.8296 2.74331 16.8296 3.35142C16.8296 3.88124 17.2591 4.31075 17.789 4.31075C18.3188 4.31075 18.7483 3.88124 18.7483 3.35142C18.7483 1.68517 17.3928 0.329733 15.7265 0.329733C14.0602 0.329733 12.7047 1.68517 12.7047 3.35142V5.74342H5.17034V3.35142C5.17034 2.7433 5.66525 2.24839 6.27346 2.24839C6.88167 2.24839 7.37658 2.7433 7.37658 3.35142C7.37658 3.88124 7.80609 4.31075 8.33595 4.31075C8.8658 4.31075 9.29532 3.88124 9.29532 3.35142C9.29527 1.68517 7.93979 0.329733 6.27346 0.329733C4.60713 0.329733 3.2516 1.68517 3.2516 3.35142V12.718C3.2516 13.2477 3.68112 13.6772 4.21097 13.6772ZM5.17034 7.66203H12.7046V9.61033H5.17034V7.66203Z" fill="url(#paint0_linear_1159_3781)" stroke="#F7F6FF" stroke-width="0.2"/>
<path d="M7.61992 16.5572C8.48509 17.2861 9.68503 17.702 11.0001 17.702C12.3151 17.702 13.515 17.2861 14.3802 16.5572C16.4541 18.3043 20.2702 18.0567 21.8465 15.7859C22.1171 15.396 22.0205 14.8605 21.6306 14.5899C21.2407 14.3193 20.7052 14.416 20.4346 14.8059C19.3456 16.3747 16.1758 16.3756 15.0862 14.8059C15.0071 14.6919 14.9015 14.5987 14.7786 14.5344C14.6557 14.47 14.519 14.4364 14.3802 14.4364C14.2415 14.4364 14.1048 14.47 13.9818 14.5344C13.8589 14.5987 13.7533 14.6918 13.6742 14.8058C12.5852 16.3747 9.4154 16.3756 8.32576 14.8058C8.24664 14.6919 8.1411 14.5987 8.01816 14.5344C7.89522 14.4701 7.75853 14.4365 7.61978 14.4365C7.48103 14.4365 7.34434 14.4701 7.22141 14.5344C7.09847 14.5988 6.99293 14.6919 6.91382 14.8059C5.82478 16.3747 2.65504 16.3756 1.5654 14.8059C1.29474 14.4159 0.759225 14.3193 0.369415 14.5899C-0.0204817 14.8606 -0.117161 15.396 0.153498 15.7859C1.73122 18.0587 5.5454 18.3048 7.61992 16.5572Z" fill="url(#paint1_linear_1159_3781)"/>
</g>
<defs>
<linearGradient id="paint0_linear_1159_3781" x1="9.61988e-07" y1="-3.9746" x2="22.3176" y2="-3.69396" gradientUnits="userSpaceOnUse">
<stop stop-color="#9945FF"/>
<stop offset="1" stop-color="#20E19F"/>
</linearGradient>
<linearGradient id="paint1_linear_1159_3781" x1="9.61992e-07" y1="13.7558" x2="22.1744" y2="15.5602" gradientUnits="userSpaceOnUse">
<stop stop-color="#9945FF"/>
<stop offset="1" stop-color="#20E19F"/>
</linearGradient>
<clipPath id="clip0_1159_3781">
<rect width="22" height="22" fill="white"/>
</clipPath>
</defs>
</svg>
