<svg width="22" height="22" viewBox="0 0 22 22" fill="none" xmlns="http://www.w3.org/2000/svg">
<g clip-path="url(#clip0_918_5022)">
<g clip-path="url(#clip1_918_5022)">
<path d="M15 13H17V17H15V13Z" fill="url(#paint0_linear_918_5022)"/>
<path d="M18.2 7.77778V5.88889C18.2 4.84717 17.3927 4 16.4 4H4.7C3.2114 4 2 5.27122 2 6.83333V18.1667C2 20.2454 3.6146 21 4.7 21H18.2C19.1927 21 20 20.1528 20 19.1111V9.66667C20 8.62494 19.1927 7.77778 18.2 7.77778ZM4.7 5.88889H16.4V7.77778H4.7C4.46827 7.7669 4.24947 7.66264 4.08915 7.48672C3.92883 7.31079 3.83936 7.07675 3.83936 6.83333C3.83936 6.58991 3.92883 6.35588 4.08915 6.17995C4.24947 6.00403 4.46827 5.89977 4.7 5.88889ZM18.2 19.1111H4.7108C4.295 19.0998 3.8 18.9269 3.8 18.1667V9.49194C4.0826 9.59867 4.3823 9.66667 4.7 9.66667H18.2V19.1111Z" fill="url(#paint1_linear_918_5022)"/>
</g>
</g>
<defs>
<linearGradient id="paint0_linear_918_5022" x1="15" y1="12.1667" x2="17.0291" y2="12.1789" gradientUnits="userSpaceOnUse">
<stop stop-color="#9945FF"/>
<stop offset="1" stop-color="#20E19F"/>
</linearGradient>
<linearGradient id="paint1_linear_918_5022" x1="2" y1="0.458287" x2="20.2598" y2="0.691906" gradientUnits="userSpaceOnUse">
<stop stop-color="#9945FF"/>
<stop offset="1" stop-color="#20E19F"/>
</linearGradient>
<clipPath id="clip0_918_5022">
<rect width="22" height="22" fill="white"/>
</clipPath>
<clipPath id="clip1_918_5022">
<rect width="22" height="23" fill="white"/>
</clipPath>
</defs>
</svg>
