<svg width="22" height="22" viewBox="0 0 22 22" fill="none" xmlns="http://www.w3.org/2000/svg">
<g clip-path="url(#clip0_918_5037)">
<path d="M18.0703 6.03906H17.5234V3.92969C17.5234 2.31426 16.2092 1 14.5938 1H7.40625C5.79082 1 4.47656 2.31426 4.47656 3.92969V6.03906H3.92969C2.31426 6.03906 1 7.35332 1 8.96875V13.6562C1 15.2717 2.31426 16.5859 3.92969 16.5859H4.47656V19.2422C4.47656 20.2114 5.26512 21 6.23438 21H15.7656C16.7349 21 17.5234 20.2114 17.5234 19.2422V16.5859H18.0703C19.6857 16.5859 21 15.2717 21 13.6562V8.96875C21 7.35332 19.6857 6.03906 18.0703 6.03906ZM5.64844 3.92969C5.64844 2.96043 6.43699 2.17188 7.40625 2.17188H14.5938C15.563 2.17188 16.3516 2.96043 16.3516 3.92969V6.03906H5.64844V3.92969ZM16.3516 19.2422C16.3516 19.5653 16.0887 19.8281 15.7656 19.8281H6.23438C5.91129 19.8281 5.64844 19.5653 5.64844 19.2422V13.4609H16.3516V19.2422ZM19.8281 13.6562C19.8281 14.6255 19.0396 15.4141 18.0703 15.4141H17.5234V13.4609H17.875C18.1986 13.4609 18.4609 13.1986 18.4609 12.875C18.4609 12.5514 18.1986 12.2891 17.875 12.2891H4.125C3.80141 12.2891 3.53906 12.5514 3.53906 12.875C3.53906 13.1986 3.80141 13.4609 4.125 13.4609H4.47656V15.4141H3.92969C2.96043 15.4141 2.17188 14.6255 2.17188 13.6562V8.96875C2.17188 7.99949 2.96043 7.21094 3.92969 7.21094H18.0703C19.0396 7.21094 19.8281 7.99949 19.8281 8.96875V13.6562Z" fill="url(#paint0_linear_918_5037)"/>
<path d="M12.4545 15H9.54545C9.24422 15 9 15.2239 9 15.5C9 15.7761 9.24422 16 9.54545 16H12.4545C12.7558 16 13 15.7761 13 15.5C13 15.2239 12.7558 15 12.4545 15Z" fill="url(#paint1_linear_918_5037)"/>
<path d="M12.4545 17H9.54545C9.24422 17 9 17.2239 9 17.5C9 17.7761 9.24422 18 9.54545 18H12.4545C12.7558 18 13 17.7761 13 17.5C13 17.2239 12.7558 17 12.4545 17Z" fill="url(#paint2_linear_918_5037)"/>
<path d="M6.42308 9H4.57692C4.25831 9 4 9.22387 4 9.5C4 9.77613 4.25831 10 4.57692 10H6.42308C6.74169 10 7 9.77613 7 9.5C7 9.22387 6.74169 9 6.42308 9Z" fill="url(#paint3_linear_918_5037)"/>
</g>
<defs>
<linearGradient id="paint0_linear_918_5037" x1="1" y1="-3.16672" x2="21.2891" y2="-2.92156" gradientUnits="userSpaceOnUse">
<stop stop-color="#9945FF"/>
<stop offset="1" stop-color="#20E19F"/>
</linearGradient>
<linearGradient id="paint1_linear_918_5037" x1="9" y1="14.7917" x2="13.0489" y2="14.9874" gradientUnits="userSpaceOnUse">
<stop stop-color="#9945FF"/>
<stop offset="1" stop-color="#20E19F"/>
</linearGradient>
<linearGradient id="paint2_linear_918_5037" x1="9" y1="16.7917" x2="13.0489" y2="16.9874" gradientUnits="userSpaceOnUse">
<stop stop-color="#9945FF"/>
<stop offset="1" stop-color="#20E19F"/>
</linearGradient>
<linearGradient id="paint3_linear_918_5037" x1="4" y1="8.79166" x2="7.03981" y2="8.90186" gradientUnits="userSpaceOnUse">
<stop stop-color="#9945FF"/>
<stop offset="1" stop-color="#20E19F"/>
</linearGradient>
<clipPath id="clip0_918_5037">
<rect width="20" height="20" fill="white" transform="translate(1 1)"/>
</clipPath>
</defs>
</svg>
