<svg width="22" height="22" viewBox="0 0 22 22" fill="none" xmlns="http://www.w3.org/2000/svg">
<g clip-path="url(#clip0_918_5000)">
<path d="M17.3637 19.0177H4.63637C4.46759 19.0177 4.30573 19.0695 4.18639 19.1616C4.06705 19.2537 4 19.3786 4 19.5089C4 19.6391 4.06705 19.764 4.18639 19.8562C4.30573 19.9482 4.46759 20 4.63637 20H17.3637C17.5324 20 17.6943 19.9482 17.8136 19.8562C17.933 19.764 18 19.6391 18 19.5089C18 19.3786 17.933 19.2537 17.8136 19.1616C17.6943 19.0695 17.5324 19.0177 17.3637 19.0177ZM11 7C10.6539 7 10.3155 7.07921 10.0278 7.22761C9.73997 7.37602 9.51569 7.58695 9.3832 7.83374C9.25078 8.08052 9.21611 8.35208 9.28362 8.61407C9.35112 8.87606 9.51783 9.11671 9.76257 9.30559C10.0073 9.49447 10.3191 9.62312 10.6586 9.6752C10.9981 9.72735 11.3499 9.70056 11.6697 9.59834C11.9895 9.49614 12.2628 9.32303 12.4551 9.10092C12.6474 8.87882 12.75 8.6177 12.75 8.35058C12.75 7.99239 12.5657 7.64886 12.2374 7.39557C11.9092 7.14229 11.4641 7 11 7ZM11 8.91046C10.8185 8.89736 10.6499 8.83244 10.5271 8.72844C10.4044 8.62443 10.3364 8.48881 10.3364 8.34813C10.3364 8.20744 10.4044 8.07182 10.5271 7.96782C10.6499 7.8638 10.8185 7.7989 11 7.78579C11.1014 7.77847 11.2037 7.78757 11.3003 7.8125C11.3969 7.83743 11.4856 7.87764 11.5609 7.93057C11.6362 7.98351 11.6964 8.04798 11.7376 8.11988C11.7787 8.19178 11.8 8.26952 11.8 8.34813C11.8 8.42673 11.7787 8.50447 11.7376 8.57637C11.6964 8.64827 11.6362 8.71275 11.5609 8.76568C11.4856 8.81861 11.3969 8.85883 11.3003 8.88376C11.2037 8.90869 11.1014 8.91779 11 8.91046Z" fill="url(#paint0_linear_918_5000)"/>
<path d="M17.6435 13.1754C17.2933 12.159 16.6944 11.2113 15.8828 10.3896L15.7098 10.213C15.7098 10.0414 15.7098 9.86977 15.6789 9.70834C15.2588 4.04592 11.4903 2.14836 11.3359 2.06761C11.2419 2.02332 11.1354 2 11.0269 2C10.9185 2 10.812 2.02332 10.718 2.06761C10.5574 2.14836 6.7951 4.04592 6.39353 9.68813C6.39353 9.84964 6.39353 10.0162 6.36265 10.1928L6.15878 10.3997C4.58752 11.9789 3.82587 13.9938 4.03358 16.0217C4.04749 16.1475 4.11868 16.2645 4.23307 16.3495C4.34745 16.4346 4.49671 16.4815 4.65136 16.481H7.38819C7.55121 16.9147 7.75783 17.3367 8.00595 17.7426C8.05963 17.8206 8.13762 17.8855 8.23207 17.9307C8.32651 17.9759 8.43401 17.9999 8.54343 18H13.4734C13.5829 17.9999 13.6903 17.9759 13.7848 17.9307C13.8792 17.8855 13.9573 17.8206 14.0109 17.7426C14.2598 17.337 14.4665 16.915 14.6286 16.481H17.3408C17.4954 16.4815 17.6447 16.4346 17.759 16.3495C17.8734 16.2645 17.9446 16.1475 17.9585 16.0217C18.0677 15.0652 17.9609 14.1004 17.6435 13.1754ZM13.0842 16.9857H8.95117C8.50874 16.1372 8.17943 15.2523 7.96889 14.3462L6.73332 14.5481C6.81981 14.8761 6.9063 15.1789 6.99897 15.4666H5.23209C5.19255 14.2274 5.57771 13.0038 6.34411 11.9339C6.34411 12.2115 6.38736 12.4891 6.42442 12.7717L7.65997 12.6657C7.53601 11.6984 7.51325 10.7242 7.59206 9.75371C7.91329 5.55487 10.1682 3.68256 11.0023 3.12237C11.8548 3.6876 14.1221 5.55487 14.4371 9.75874C14.6499 12.2199 14.1877 14.6889 13.0842 16.9857ZM15.0117 15.4716C15.3709 14.3241 15.5964 13.1514 15.6851 11.9692C16.4365 13.0323 16.8129 14.2445 16.7724 15.4716H15.0117Z" fill="url(#paint1_linear_918_5000)"/>
</g>
<defs>
<linearGradient id="paint0_linear_918_5000" x1="4" y1="4.29163" x2="18.202" y2="4.47644" gradientUnits="userSpaceOnUse">
<stop stop-color="#9945FF"/>
<stop offset="1" stop-color="#20E19F"/>
</linearGradient>
<linearGradient id="paint1_linear_918_5000" x1="4" y1="-1.33338" x2="18.2028" y2="-1.18321" gradientUnits="userSpaceOnUse">
<stop stop-color="#9945FF"/>
<stop offset="1" stop-color="#20E19F"/>
</linearGradient>
<clipPath id="clip0_918_5000">
<rect width="22" height="18" fill="white" transform="translate(0 2)"/>
</clipPath>
</defs>
</svg>
