<svg width="22" height="22" viewBox="0 0 22 22" fill="none" xmlns="http://www.w3.org/2000/svg">
<path d="M18.5222 18.3456L18.5221 18.345L17.9284 15.439C17.3516 12.587 14.8207 10.5375 11.9064 10.5375H9.9689C6.95783 10.5375 4.39504 12.7159 3.91456 15.6949L3.91451 15.6952L3.47701 18.4452L3.47699 18.4452L3.47666 18.4475C3.40839 18.9254 3.54419 19.4365 3.8528 19.8137C4.16513 20.1955 4.64692 20.4 5.12515 20.4H9.00015H13.0626H16.9376C17.4526 20.4 17.9323 20.1601 18.2412 19.7825L18.2459 19.7768L18.25 19.7707C18.5226 19.3618 18.6236 18.8523 18.5222 18.3456ZM11.9064 11.8062H12.0564V11.7767C12.0795 11.7775 12.1024 11.7786 12.1248 11.7801C11.964 12.26 11.5263 12.6 11.0001 12.6C10.4836 12.6 10.0523 12.2722 9.8846 11.8062H9.9689H11.9064ZM4.9439 19.1106C4.87321 19.0878 4.82153 19.0462 4.78502 18.9853L4.77552 18.9695L4.76246 18.9564C4.68204 18.876 4.65424 18.7444 4.67849 18.6232L4.6786 18.6232L4.67954 18.6173L5.11679 15.8688C5.11684 15.8685 5.11688 15.8683 5.11692 15.868C5.44186 13.9496 6.82834 12.4349 8.6326 11.9354C8.76238 12.5046 9.10982 12.9877 9.56023 13.321L8.92816 19.1H5.0939H4.9439V19.1106ZM13.3343 12.0027C15.0207 12.5274 16.3439 13.923 16.6967 15.7165L16.6969 15.7175L17.2907 18.6238L17.2934 18.637L17.2984 18.6495C17.3399 18.7532 17.318 18.8762 17.2378 18.9564C17.1292 19.0651 17.0088 19.1313 16.8751 19.1313H13.0721L12.44 13.3522C12.8872 13.0195 13.2073 12.5412 13.3343 12.0027ZM11.2714 13.8063L11.8335 19.1313H10.1668L10.7289 13.8063H10.9689H11.0001H11.0314H11.2714Z" fill="url(#paint0_linear_918_5088)" stroke="url(#paint1_linear_918_5088)" stroke-width="0.3"/>
<path d="M11 10.2125C13.3641 10.2125 15.3062 8.27034 15.3062 5.90625C15.3062 3.54069 13.3626 1.63125 11 1.63125C8.63591 1.63125 6.69375 3.57341 6.69375 5.9375C6.69375 8.30306 8.63738 10.2125 11 10.2125ZM11 2.86875C12.6984 2.86875 14.0687 4.23909 14.0687 5.9375C14.0687 7.634 12.7003 8.975 11 8.975C9.30159 8.975 7.93125 7.60466 7.93125 5.90625C7.93125 4.20975 9.29968 2.86875 11 2.86875Z" fill="url(#paint2_linear_918_5088)" stroke="url(#paint3_linear_918_5088)" stroke-width="0.3"/>
<defs>
<linearGradient id="paint0_linear_918_5088" x1="3.60938" y1="8.69529" x2="18.6217" y2="8.97607" gradientUnits="userSpaceOnUse">
<stop stop-color="#9945FF"/>
<stop offset="1" stop-color="#20E19F"/>
</linearGradient>
<linearGradient id="paint1_linear_918_5088" x1="3.60938" y1="8.69529" x2="18.6217" y2="8.97607" gradientUnits="userSpaceOnUse">
<stop stop-color="#9945FF"/>
<stop offset="1" stop-color="#20E19F"/>
</linearGradient>
<linearGradient id="paint2_linear_918_5088" x1="6.84375" y1="0.0559672" x2="15.2764" y2="0.158246" gradientUnits="userSpaceOnUse">
<stop stop-color="#9945FF"/>
<stop offset="1" stop-color="#20E19F"/>
</linearGradient>
<linearGradient id="paint3_linear_918_5088" x1="6.84375" y1="0.0559672" x2="15.2764" y2="0.158246" gradientUnits="userSpaceOnUse">
<stop stop-color="#9945FF"/>
<stop offset="1" stop-color="#20E19F"/>
</linearGradient>
</defs>
</svg>
