<svg width="22" height="22" viewBox="0 0 22 22" fill="none" xmlns="http://www.w3.org/2000/svg">
<g clip-path="url(#clip0_918_5079)">
<g clip-path="url(#clip1_918_5079)">
<path d="M11 7V12H16V10H13V7H11Z" fill="url(#paint0_linear_918_5079)"/>
<path d="M19.3628 7.88601C18.9568 6.93491 18.3675 6.07087 17.6276 5.34195C16.5076 4.23576 15.0839 3.478 13.5326 3.16235C12.4558 2.94588 11.346 2.94588 10.2692 3.16235C8.7164 3.47598 7.29152 4.23437 6.1724 5.34284C5.4343 6.07253 4.84519 6.93563 4.4372 7.88512C4.0152 8.87057 3.79849 9.92984 3.8 10.9998L3.8009 11.022H2L4.7 14.5555L7.39999 11.022H5.6009L5.6 10.9998C5.5974 9.76015 5.97211 8.54831 6.6755 7.52156C7.1292 6.85904 7.70685 6.28821 8.37739 5.83974C9.05954 5.38587 9.82468 5.06763 10.6301 4.90283C12.2667 4.57047 13.9701 4.89362 15.3656 5.80123C16.7612 6.70884 17.7347 8.12663 18.0722 9.7429C18.2419 10.5713 18.2419 11.4249 18.0722 12.2532C17.9075 13.0494 17.5851 13.8055 17.1236 14.4781C16.8986 14.8079 16.6403 15.1181 16.355 15.399C15.7801 15.9662 15.1002 16.4191 14.3525 16.7333C13.9716 16.8923 13.5758 17.0138 13.1708 17.096C12.3323 17.2635 11.4685 17.2635 10.6301 17.096C9.82486 16.9329 9.06002 16.6149 8.37919 16.1599C8.04435 15.9365 7.73183 15.682 7.44589 15.3999L6.1733 16.6568C6.9249 17.4002 7.81762 17.9898 8.8003 18.3919C9.78301 18.794 10.8363 19.0006 11.9 19C12.9828 18.9996 14.0545 18.7859 15.0527 18.3715C16.4995 17.767 17.7374 16.7602 18.6158 15.4737C19.5198 14.1527 20.002 12.5943 20 10.9998C20.0022 9.93011 19.7855 8.87093 19.3628 7.88601Z" fill="url(#paint1_linear_918_5079)"/>
</g>
</g>
<defs>
<linearGradient id="paint0_linear_918_5079" x1="11" y1="5.95832" x2="16.0723" y2="6.01961" gradientUnits="userSpaceOnUse">
<stop stop-color="#9945FF"/>
<stop offset="1" stop-color="#20E19F"/>
</linearGradient>
<linearGradient id="paint1_linear_918_5079" x1="2" y1="-0.333377" x2="20.2594" y2="-0.0851622" gradientUnits="userSpaceOnUse">
<stop stop-color="#9945FF"/>
<stop offset="1" stop-color="#20E19F"/>
</linearGradient>
<clipPath id="clip0_918_5079">
<rect width="22" height="22" fill="white"/>
</clipPath>
<clipPath id="clip1_918_5079">
<rect width="22" height="22" fill="white"/>
</clipPath>
</defs>
</svg>
