<svg width="15" height="19" viewBox="0 0 15 19" fill="none" xmlns="http://www.w3.org/2000/svg">
<g clip-path="url(#clip0_53_664)">
<g clip-path="url(#clip1_53_664)">
<path d="M6.99997 19C5.73692 17.9228 4.56617 16.7419 3.49999 15.4697C1.89999 13.5591 8.79148e-07 10.7136 8.79148e-07 8.00214C-0.000693118 6.61737 0.409507 5.26353 1.17869 4.11193C1.94787 2.96034 3.04146 2.06276 4.32105 1.5328C5.60064 1.00285 7.00872 0.864328 8.36709 1.13477C9.72544 1.40523 10.9731 2.07249 11.952 3.05211C12.6037 3.70084 13.1203 4.47237 13.4719 5.32204C13.8234 6.17171 14.0029 7.08265 14 8.00214C14 10.7136 12.1 13.5591 10.5 15.4697C9.43376 16.7419 8.26303 17.9228 6.99997 19ZM6.99997 5.00273C6.20433 5.00273 5.44127 5.31873 4.87866 5.88123C4.31605 6.44373 3.99999 7.20665 3.99999 8.00214C3.99999 8.79763 4.31605 9.56054 4.87866 10.123C5.44127 10.6855 6.20433 11.0016 6.99997 11.0016C7.79562 11.0016 8.55868 10.6855 9.12129 10.123C9.68389 9.56054 9.99998 8.79763 9.99998 8.00214C9.99998 7.20665 9.68389 6.44373 9.12129 5.88123C8.55868 5.31873 7.79562 5.00273 6.99997 5.00273Z" fill="#A260FD"/>
</g>
</g>
<defs>
<clipPath id="clip0_53_664">
<rect width="15" height="19" fill="white"/>
</clipPath>
<clipPath id="clip1_53_664">
<rect width="15" height="19" fill="white"/>
</clipPath>
</defs>
</svg>
