              <svg width="30" height="25" viewBox="0 0 30 25" fill="none" xmlns="http://www.w3.org/2000/svg">
                <g clipPath="url(#clip0_244_1654)">
                  <path
                    d="M23.334 23.1821H6.66732C6.4463 23.1821 6.23434 23.254 6.07806 23.3818C5.92178 23.5097 5.83398 23.6831 5.83398 23.864C5.83398 24.0448 5.92178 24.2182 6.07806 24.3461C6.23434 24.4739 6.4463 24.5458 6.66732 24.5458H23.334C23.555 24.5458 23.767 24.4739 23.9232 24.3461C24.0795 24.2182 24.1673 24.0448 24.1673 23.864C24.1673 23.6831 24.0795 23.5097 23.9232 23.3818C23.767 23.254 23.555 23.1821 23.334 23.1821ZM15.0007 6.49805C14.5474 6.49805 14.1043 6.60801 13.7275 6.81404C13.3506 7.02007 13.0569 7.3129 12.8834 7.65552C12.71 7.99813 12.6646 8.37513 12.753 8.73884C12.8414 9.10256 13.0597 9.43665 13.3802 9.69887C13.7007 9.9611 14.109 10.1397 14.5536 10.212C14.9981 10.2844 15.4589 10.2472 15.8776 10.1053C16.2964 9.96341 16.6543 9.72308 16.9061 9.41474C17.1579 9.1064 17.2923 8.74389 17.2923 8.37305C17.2923 7.87577 17.0509 7.39885 16.6211 7.04722C16.1913 6.69559 15.6084 6.49805 15.0007 6.49805ZM15.0007 9.15032C14.763 9.13213 14.5422 9.04201 14.3814 8.89762C14.2207 8.75323 14.1316 8.56495 14.1316 8.36964C14.1316 8.17433 14.2207 7.98605 14.3814 7.84166C14.5422 7.69726 14.763 7.60715 15.0007 7.58896C15.1334 7.57879 15.2674 7.59142 15.3939 7.62603C15.5204 7.66064 15.6366 7.71647 15.7352 7.78995C15.8338 7.86344 15.9126 7.95295 15.9665 8.05277C16.0204 8.15259 16.0483 8.26051 16.0483 8.36964C16.0483 8.47876 16.0204 8.58669 15.9665 8.68651C15.9126 8.78633 15.8338 8.87584 15.7352 8.94932C15.6366 9.0228 15.5204 9.07864 15.3939 9.11325C15.2674 9.14786 15.1334 9.16049 15.0007 9.15032Z"
                    fill="#2892F3"
                  />
                  <path
                    d="M23.9583 15.3072C23.486 13.934 22.6781 12.6537 21.5833 11.5435L21.35 11.3049C21.35 11.0731 21.35 10.8412 21.3083 10.6231C20.7416 2.97306 15.6583 0.409422 15.45 0.300331C15.3233 0.240489 15.1796 0.208984 15.0333 0.208984C14.887 0.208984 14.7433 0.240489 14.6166 0.300331C14.4 0.409422 9.32498 2.97306 8.78331 10.5958C8.78331 10.814 8.78331 11.039 8.74165 11.2776L8.46665 11.5572C6.34719 13.6907 5.31981 16.4128 5.59998 19.1526C5.61875 19.3226 5.71477 19.4806 5.86907 19.5955C6.02336 19.7104 6.2247 19.7738 6.43331 19.7731H10.125C10.3449 20.3591 10.6236 20.9292 10.9583 21.4776C11.0307 21.5829 11.1359 21.6706 11.2633 21.7317C11.3907 21.7928 11.5357 21.8251 11.6833 21.8253H18.3333C18.481 21.8251 18.6259 21.7928 18.7533 21.7317C18.8807 21.6706 18.986 21.5829 19.0583 21.4776C19.3941 20.9296 19.6729 20.3594 19.8916 19.7731H23.55C23.7586 19.7738 23.9599 19.7104 24.1142 19.5955C24.2685 19.4806 24.3645 19.3226 24.3833 19.1526C24.5305 17.8603 24.3865 16.5569 23.9583 15.3072ZM17.8083 20.4549H12.2333C11.6365 19.3086 11.1923 18.1131 10.9083 16.889L9.24165 17.1617C9.35831 17.6049 9.47498 18.014 9.59998 18.4026H7.21665C7.16331 16.7284 7.68285 15.0753 8.71665 13.6299C8.71665 14.0049 8.77498 14.3799 8.82498 14.7617L10.4916 14.6185C10.3244 13.3117 10.2937 11.9955 10.4 10.6844C10.8333 5.01169 13.875 2.48215 15 1.72533C16.15 2.48897 19.2083 5.01169 19.6333 10.6912C19.9203 14.0163 19.2968 17.3519 17.8083 20.4549ZM20.4083 18.4094C20.8929 16.8591 21.197 15.2748 21.3166 13.6776C22.3302 15.1138 22.8379 16.7516 22.7833 18.4094H20.4083Z"
                    fill="#2892F3"
                  />
                </g>
                <defs>
                  <clipPath id="clip0_244_1654">
                    <rect width="30" height="24.5455" fill="white" />
                  </clipPath>
                </defs>
              </svg>