<svg width="19" height="15" viewBox="0 0 19 15" fill="none" xmlns="http://www.w3.org/2000/svg">
<g clip-path="url(#clip0_340_87444)">
<path d="M3.04539 7.6203C4.1652 7.6203 5.07564 6.48225 5.07564 5.08248C5.07564 3.68271 4.1652 2.54466 3.04539 2.54466C1.92557 2.54466 1.01513 3.68271 1.01513 5.08248C1.01513 6.48225 1.92557 7.6203 3.04539 7.6203ZM17.2572 7.6203C18.377 7.6203 19.2874 6.48225 19.2874 5.08248C19.2874 3.68271 18.377 2.54466 17.2572 2.54466C16.1374 2.54466 15.2269 3.68271 15.2269 5.08248C15.2269 6.48225 16.1374 7.6203 17.2572 7.6203ZM18.2723 8.88921H16.2421C15.6837 8.88921 15.1793 9.17075 14.8114 9.62677C16.0898 10.5031 16.9971 12.0853 17.1937 13.9649H19.2874C19.8489 13.9649 20.3026 13.3978 20.3026 12.6959V11.427C20.3026 10.0273 19.3921 8.88921 18.2723 8.88921ZM10.1513 8.88921C12.1149 8.88921 13.7042 6.90257 13.7042 4.44802C13.7042 1.99347 12.1149 0.00683594 10.1513 0.00683594C8.18765 0.00683594 6.59834 1.99347 6.59834 4.44802C6.59834 6.90257 8.18765 8.88921 10.1513 8.88921ZM12.5876 10.1581H12.3243C11.6645 10.5547 10.9317 10.7926 10.1513 10.7926C9.37091 10.7926 8.64128 10.5547 7.97828 10.1581H7.71498C5.69741 10.1581 4.06051 12.2042 4.06051 14.7262V15.8682C4.06051 16.919 4.74255 17.7716 5.58321 17.7716H14.7194C15.56 17.7716 16.2421 16.919 16.2421 15.8682V14.7262C16.2421 12.2042 14.6052 10.1581 12.5876 10.1581ZM5.49121 9.62677C5.12323 9.17075 4.61884 8.88921 4.06051 8.88921H2.03026C0.910444 8.88921 0 10.0273 0 11.427V12.6959C0 13.3978 0.453636 13.9649 1.01513 13.9649H3.10566C3.30551 12.0853 4.21278 10.5031 5.49121 9.62677Z" fill="#6B7380"/>
<path d="M3.04539 7.6203C4.1652 7.6203 5.07564 6.48225 5.07564 5.08248C5.07564 3.68271 4.1652 2.54466 3.04539 2.54466C1.92557 2.54466 1.01513 3.68271 1.01513 5.08248C1.01513 6.48225 1.92557 7.6203 3.04539 7.6203ZM17.2572 7.6203C18.377 7.6203 19.2874 6.48225 19.2874 5.08248C19.2874 3.68271 18.377 2.54466 17.2572 2.54466C16.1374 2.54466 15.2269 3.68271 15.2269 5.08248C15.2269 6.48225 16.1374 7.6203 17.2572 7.6203ZM18.2723 8.88921H16.2421C15.6837 8.88921 15.1793 9.17075 14.8114 9.62677C16.0898 10.5031 16.9971 12.0853 17.1937 13.9649H19.2874C19.8489 13.9649 20.3026 13.3978 20.3026 12.6959V11.427C20.3026 10.0273 19.3921 8.88921 18.2723 8.88921ZM10.1513 8.88921C12.1149 8.88921 13.7042 6.90257 13.7042 4.44802C13.7042 1.99347 12.1149 0.00683594 10.1513 0.00683594C8.18765 0.00683594 6.59834 1.99347 6.59834 4.44802C6.59834 6.90257 8.18765 8.88921 10.1513 8.88921ZM12.5876 10.1581H12.3243C11.6645 10.5547 10.9317 10.7926 10.1513 10.7926C9.37091 10.7926 8.64128 10.5547 7.97828 10.1581H7.71498C5.69741 10.1581 4.06051 12.2042 4.06051 14.7262V15.8682C4.06051 16.919 4.74255 17.7716 5.58321 17.7716H14.7194C15.56 17.7716 16.2421 16.919 16.2421 15.8682V14.7262C16.2421 12.2042 14.6052 10.1581 12.5876 10.1581ZM5.49121 9.62677C5.12323 9.17075 4.61884 8.88921 4.06051 8.88921H2.03026C0.910444 8.88921 0 10.0273 0 11.427V12.6959C0 13.3978 0.453636 13.9649 1.01513 13.9649H3.10566C3.30551 12.0853 4.21278 10.5031 5.49121 9.62677Z" fill="#6B7380"/>
</g>
<defs>
<clipPath id="clip0_340_87444">
<rect width="18.6543" height="14.9235" fill="white" transform="translate(0 0.00683594)"/>
</clipPath>
</defs>
</svg>
