<svg width="22" height="22" viewBox="0 0 22 22" fill="none" xmlns="http://www.w3.org/2000/svg">
<path d="M16.536 12.4208C16.151 12.7966 15.931 13.3375 15.986 13.915C16.0685 14.905 16.976 15.6291 17.966 15.6291H19.7077V16.72C19.7077 18.6175 18.1585 20.1667 16.261 20.1667H5.73768C3.84018 20.1667 2.29102 18.6175 2.29102 16.72V10.5508C2.29102 8.65333 3.84018 7.10416 5.73768 7.10416H16.261C18.1585 7.10416 19.7077 8.65333 19.7077 10.5508V11.8708H17.856C17.3427 11.8708 16.8752 12.0725 16.536 12.4208Z" stroke="#292D32" stroke-width="1.5" stroke-linecap="round" stroke-linejoin="round"/>
<path d="M2.29102 11.3758V7.1867C2.29102 6.09587 2.96018 5.12416 3.97768 4.73916L11.256 1.98916C12.3927 1.55833 13.6118 2.40169 13.6118 3.62085V7.10418" stroke="#292D32" stroke-width="1.5" stroke-linecap="round" stroke-linejoin="round"/>
<path d="M20.6783 12.806V14.6944C20.6783 15.1985 20.2749 15.611 19.7616 15.6293H17.9649C16.9749 15.6293 16.0674 14.9052 15.9849 13.9152C15.9299 13.3377 16.1499 12.7968 16.5349 12.421C16.8741 12.0726 17.3416 11.871 17.8549 11.871H19.7616C20.2749 11.8893 20.6783 12.3018 20.6783 12.806Z" stroke="#292D32" stroke-width="1.5" stroke-linecap="round" stroke-linejoin="round"/>
<path d="M6.41602 11H12.8327" stroke="#292D32" stroke-width="1.5" stroke-linecap="round" stroke-linejoin="round"/>
</svg>
