<svg width="23" height="22" viewBox="0 0 23 22" fill="none" xmlns="http://www.w3.org/2000/svg">
<path d="M14.1118 3.62082V7.10415H12.7368V3.62082C12.7368 3.37332 12.5168 3.25415 12.3702 3.25415C12.3243 3.25415 12.2785 3.26332 12.2327 3.28165L4.96352 6.02248C4.47768 6.20582 4.16602 6.66415 4.16602 7.18665V7.80082C3.33185 8.42415 2.79102 9.42332 2.79102 10.5508V7.18665C2.79102 6.09582 3.46018 5.12415 4.47768 4.73915L11.756 1.98915C11.9577 1.91582 12.1685 1.87915 12.3702 1.87915C13.2868 1.87915 14.1118 2.62165 14.1118 3.62082Z" fill="white"/>
<path d="M20.2093 13.2917V14.2084C20.2093 14.4559 20.0168 14.6575 19.7601 14.6667H18.4218C17.9359 14.6667 17.4959 14.3092 17.4593 13.8325C17.4318 13.5484 17.5418 13.2825 17.7251 13.0992C17.8901 12.925 18.1193 12.8334 18.3668 12.8334H19.7509C20.0168 12.8425 20.2093 13.0442 20.2093 13.2917Z" fill="white"/>
<path d="M18.356 11.8708H19.291C19.7952 11.8708 20.2077 11.4583 20.2077 10.9541V10.5508C20.2077 8.65329 18.6585 7.10413 16.761 7.10413H6.23768C5.45852 7.10413 4.74352 7.36079 4.16602 7.80079C3.33185 8.42413 2.79102 9.42329 2.79102 10.5508V16.72C2.79102 18.6175 4.34018 20.1666 6.23768 20.1666H16.761C18.6585 20.1666 20.2077 18.6175 20.2077 16.72V16.5458C20.2077 16.0416 19.7952 15.6291 19.291 15.6291H18.4935C17.6135 15.6291 16.7702 15.0883 16.541 14.2358C16.3485 13.5391 16.5777 12.87 17.036 12.4208C17.3752 12.0725 17.8427 11.8708 18.356 11.8708ZM13.3327 11.6875H6.91602C6.54018 11.6875 6.22852 11.3758 6.22852 11C6.22852 10.6241 6.54018 10.3125 6.91602 10.3125H13.3327C13.7085 10.3125 14.0202 10.6241 14.0202 11C14.0202 11.3758 13.7085 11.6875 13.3327 11.6875Z" fill="white"/>
</svg>
