<svg width="27" height="28" viewBox="0 0 27 28" fill="none" xmlns="http://www.w3.org/2000/svg">
<g clip-path="url(#clip0_244_26436)">
<path d="M11.168 14.832H12.8346V16.4987H11.168V14.832Z" fill="white"/>
<path d="M22.0007 7.33268H2.00065V4.83268H20.334V3.16602H2.00065C1.55862 3.16602 1.1347 3.34161 0.82214 3.65417C0.509579 3.96673 0.333984 4.39065 0.333984 4.83268V22.3327C0.333984 22.7747 0.509579 23.1986 0.82214 23.5112C1.1347 23.8238 1.55862 23.9993 2.00065 23.9993H22.0007C22.4427 23.9993 22.8666 23.8238 23.1792 23.5112C23.4917 23.1986 23.6673 22.7747 23.6673 22.3327V8.99935C23.6673 8.55732 23.4917 8.1334 23.1792 7.82084C22.8666 7.50828 22.4427 7.33268 22.0007 7.33268ZM2.00065 22.3327V8.99935H22.0007V11.4993H15.334C14.892 11.4993 14.468 11.6749 14.1555 11.9875C13.8429 12.3001 13.6673 12.724 13.6673 13.166V18.166C13.6673 18.608 13.8429 19.032 14.1555 19.3445C14.468 19.6571 14.892 19.8327 15.334 19.8327H22.0007V22.3327H2.00065ZM22.0007 13.166V18.166H15.334V13.166H22.0007Z" fill="white"/>
</g>
<defs>
<clipPath id="clip0_244_26436">
<rect width="26.6667" height="26.6667" fill="white" transform="translate(0.333984 0.666016)"/>
</clipPath>
</defs>
</svg>
