<svg width="22" height="22" viewBox="0 0 22 22" fill="none" xmlns="http://www.w3.org/2000/svg">
<path d="M2.36709 2.675C2.36709 2.49598 2.29507 2.32429 2.16688 2.1977C2.03869 2.07112 1.86483 2 1.68354 2C1.50226 2 1.32839 2.07112 1.20021 2.1977C1.07202 2.32429 1 2.49598 1 2.675V19.325C1 19.6976 1.30623 20 1.68354 20H18.3165C18.4977 20 18.6716 19.9289 18.7998 19.8023C18.928 19.6757 19 19.504 19 19.325C19 19.146 18.928 18.9743 18.7998 18.8477C18.6716 18.7211 18.4977 18.65 18.3165 18.65H2.36709V2.675Z" fill="url(#paint0_linear_1159_3796)"/>
<path d="M20.8099 7.19491C20.935 7.06022 21.0031 6.88207 20.9999 6.69799C20.9967 6.51392 20.9223 6.33829 20.7925 6.20811C20.6628 6.07793 20.4877 6.00336 20.3042 6.00011C20.1207 5.99686 19.9431 6.06519 19.8088 6.1907L14.4066 11.6096L10.8932 8.08543C10.7604 7.95238 10.5804 7.87764 10.3927 7.87764C10.205 7.87764 10.0249 7.95238 9.89211 8.08543L4.22545 13.7696C4.15585 13.8347 4.10003 13.9131 4.06132 14.0003C4.02261 14.0875 4.00179 14.1815 4.00011 14.2769C3.99843 14.3723 4.01593 14.4671 4.05155 14.5556C4.08718 14.6441 4.1402 14.7244 4.20747 14.7919C4.27473 14.8594 4.35485 14.9126 4.44305 14.9483C4.53125 14.984 4.62572 15.0016 4.72083 14.9999C4.81594 14.9982 4.90973 14.9773 4.99662 14.9385C5.08351 14.8997 5.16171 14.8437 5.22656 14.7739L10.3927 9.59175L13.906 13.116C14.0388 13.249 14.2188 13.3238 14.4066 13.3238C14.5943 13.3238 14.7743 13.249 14.9071 13.116L20.8099 7.19491Z" fill="url(#paint1_linear_1159_3796)"/>
<defs>
<linearGradient id="paint0_linear_1159_3796" x1="1" y1="-1.75005" x2="19.2601" y2="-1.52941" gradientUnits="userSpaceOnUse">
<stop stop-color="#9945FF"/>
<stop offset="1" stop-color="#20E19F"/>
</linearGradient>
<linearGradient id="paint1_linear_1159_3796" x1="4" y1="4.12498" x2="21.2392" y2="4.51845" gradientUnits="userSpaceOnUse">
<stop stop-color="#9945FF"/>
<stop offset="1" stop-color="#20E19F"/>
</linearGradient>
</defs>
</svg>
